<svg width="199" height="40" viewBox="0 0 199 40" fill="none" xmlns="http://www.w3.org/2000/svg">
<path d="M11.5848 27.59C12.6348 27.59 13.5168 27.464 14.2308 27.212C14.9448 26.96 15.5118 26.624 15.9318 26.204C16.3658 25.784 16.6738 25.294 16.8558 24.734C17.0518 24.174 17.1498 23.579 17.1498 22.949C17.1498 22.291 17.0448 21.703 16.8348 21.185C16.6248 20.653 16.2958 20.205 15.8478 19.841C15.3998 19.463 14.8188 19.176 14.1048 18.98C13.4048 18.784 12.5578 18.686 11.5638 18.686H5.87277V27.59H11.5848ZM5.87277 6.002V14.78H10.3668C12.2988 14.78 13.7548 14.43 14.7348 13.73C15.7288 13.03 16.2258 11.917 16.2258 10.391C16.2258 8.809 15.7778 7.682 14.8818 7.01C13.9858 6.338 12.5858 6.002 10.6818 6.002H5.87277ZM10.6818 1.634C12.6698 1.634 14.3708 1.823 15.7848 2.201C17.1988 2.579 18.3538 3.118 19.2498 3.818C20.1598 4.518 20.8248 5.365 21.2448 6.359C21.6648 7.353 21.8748 8.473 21.8748 9.719C21.8748 10.433 21.7698 11.119 21.5598 11.777C21.3498 12.421 21.0208 13.03 20.5728 13.604C20.1388 14.164 19.5788 14.675 18.8928 15.137C18.2208 15.599 17.4158 15.991 16.4778 16.313C20.6498 17.251 22.7358 19.505 22.7358 23.075C22.7358 24.363 22.4908 25.553 22.0008 26.645C21.5108 27.737 20.7968 28.682 19.8588 29.48C18.9208 30.264 17.7658 30.88 16.3938 31.328C15.0218 31.776 13.4538 32 11.6898 32H0.223774V1.634H10.6818ZM32.0142 0.793999V32H26.8272V0.793999H32.0142ZM46.8001 10.118C48.3961 10.118 49.8451 10.377 51.1471 10.895C52.4631 11.413 53.5831 12.148 54.5071 13.1C55.4451 14.052 56.1661 15.214 56.6701 16.586C57.1741 17.958 57.4261 19.491 57.4261 21.185C57.4261 22.893 57.1741 24.433 56.6701 25.805C56.1661 27.177 55.4451 28.346 54.5071 29.312C53.5831 30.278 52.4631 31.02 51.1471 31.538C49.8451 32.056 48.3961 32.315 46.8001 32.315C45.1901 32.315 43.7271 32.056 42.4111 31.538C41.0951 31.02 39.9681 30.278 39.0301 29.312C38.1061 28.346 37.3851 27.177 36.8671 25.805C36.3631 24.433 36.1111 22.893 36.1111 21.185C36.1111 19.491 36.3631 17.958 36.8671 16.586C37.3851 15.214 38.1061 14.052 39.0301 13.1C39.9681 12.148 41.0951 11.413 42.4111 10.895C43.7271 10.377 45.1901 10.118 46.8001 10.118ZM46.8001 28.325C48.5921 28.325 49.9151 27.723 50.7691 26.519C51.6371 25.315 52.0711 23.551 52.0711 21.227C52.0711 18.903 51.6371 17.132 50.7691 15.914C49.9151 14.696 48.5921 14.087 46.8001 14.087C44.9801 14.087 43.6291 14.703 42.7471 15.935C41.8791 17.153 41.4451 18.917 41.4451 21.227C41.4451 23.537 41.8791 25.301 42.7471 26.519C43.6291 27.723 44.9801 28.325 46.8001 28.325ZM69.1783 20.702C69.8223 20.702 70.3823 20.618 70.8583 20.45C71.3343 20.268 71.7263 20.023 72.0343 19.715C72.3563 19.407 72.5943 19.036 72.7483 18.602C72.9163 18.168 73.0003 17.692 73.0003 17.174C73.0003 16.11 72.6783 15.27 72.0343 14.654C71.4043 14.024 70.4523 13.709 69.1783 13.709C67.9043 13.709 66.9453 14.024 66.3013 14.654C65.6713 15.27 65.3563 16.11 65.3563 17.174C65.3563 17.678 65.4333 18.147 65.5873 18.581C65.7553 19.015 65.9933 19.393 66.3013 19.715C66.6233 20.023 67.0223 20.268 67.4983 20.45C67.9883 20.618 68.5483 20.702 69.1783 20.702ZM75.0373 32.966C75.0373 32.546 74.9113 32.203 74.6593 31.937C74.4073 31.671 74.0643 31.468 73.6303 31.328C73.1963 31.174 72.6853 31.062 72.0973 30.992C71.5233 30.922 70.9073 30.873 70.2493 30.845C69.6053 30.803 68.9333 30.768 68.2333 30.74C67.5473 30.712 66.8753 30.656 66.2173 30.572C65.6433 30.894 65.1743 31.272 64.8103 31.706C64.4603 32.14 64.2853 32.644 64.2853 33.218C64.2853 33.596 64.3763 33.946 64.5583 34.268C64.7543 34.604 65.0553 34.891 65.4613 35.129C65.8813 35.367 66.4203 35.549 67.0783 35.675C67.7363 35.815 68.5413 35.885 69.4933 35.885C70.4593 35.885 71.2923 35.808 71.9923 35.654C72.6923 35.514 73.2663 35.311 73.7143 35.045C74.1763 34.793 74.5123 34.485 74.7223 34.121C74.9323 33.771 75.0373 33.386 75.0373 32.966ZM80.2033 11.189V13.121C80.2033 13.737 79.8323 14.115 79.0903 14.255L77.1583 14.612C77.4523 15.354 77.5993 16.166 77.5993 17.048C77.5993 18.112 77.3823 19.078 76.9483 19.946C76.5283 20.8 75.9403 21.528 75.1843 22.13C74.4283 22.732 73.5323 23.201 72.4963 23.537C71.4743 23.859 70.3683 24.02 69.1783 24.02C68.7583 24.02 68.3523 23.999 67.9603 23.957C67.5683 23.915 67.1833 23.859 66.8053 23.789C66.1333 24.195 65.7973 24.65 65.7973 25.154C65.7973 25.588 65.9933 25.91 66.3853 26.12C66.7913 26.316 67.3233 26.456 67.9813 26.54C68.6393 26.624 69.3883 26.68 70.2283 26.708C71.0683 26.722 71.9293 26.764 72.8113 26.834C73.6933 26.904 74.5543 27.03 75.3943 27.212C76.2343 27.38 76.9833 27.653 77.6413 28.031C78.2993 28.409 78.8243 28.927 79.2163 29.585C79.6223 30.229 79.8253 31.062 79.8253 32.084C79.8253 33.036 79.5873 33.96 79.1113 34.856C78.6493 35.752 77.9703 36.55 77.0743 37.25C76.1923 37.95 75.1003 38.51 73.7983 38.93C72.5103 39.364 71.0403 39.581 69.3883 39.581C67.7643 39.581 66.3503 39.42 65.1463 39.098C63.9423 38.79 62.9413 38.37 62.1433 37.838C61.3453 37.32 60.7503 36.718 60.3583 36.032C59.9663 35.346 59.7703 34.632 59.7703 33.89C59.7703 32.882 60.0713 32.042 60.6733 31.37C61.2893 30.684 62.1293 30.138 63.1933 29.732C62.6193 29.438 62.1643 29.046 61.8283 28.556C61.4923 28.066 61.3243 27.422 61.3243 26.624C61.3243 26.302 61.3803 25.973 61.4923 25.637C61.6183 25.287 61.7933 24.944 62.0173 24.608C62.2553 24.272 62.5493 23.957 62.8993 23.663C63.2493 23.355 63.6623 23.082 64.1383 22.844C63.0463 22.256 62.1853 21.472 61.5553 20.492C60.9393 19.512 60.6313 18.364 60.6313 17.048C60.6313 15.984 60.8413 15.025 61.2613 14.171C61.6953 13.303 62.2903 12.568 63.0463 11.966C63.8163 11.35 64.7193 10.881 65.7553 10.559C66.8053 10.237 67.9463 10.076 69.1783 10.076C70.1023 10.076 70.9703 10.174 71.7823 10.37C72.5943 10.552 73.3363 10.825 74.0083 11.189H80.2033Z" fill="#F28520"/>
<path d="M100.839 20.828L96.1137 8.585C95.9737 8.221 95.8267 7.801 95.6727 7.325C95.5187 6.835 95.3717 6.317 95.2317 5.771C94.9377 6.905 94.6367 7.85 94.3287 8.606L89.6037 20.828H100.839ZM109.323 32H106.173C105.809 32 105.515 31.909 105.291 31.727C105.067 31.545 104.899 31.314 104.787 31.034L101.973 23.768H88.4697L85.6557 31.034C85.5717 31.286 85.4107 31.51 85.1727 31.706C84.9347 31.902 84.6407 32 84.2907 32H81.1407L93.1737 1.907H97.2897L109.323 32ZM125.892 15.788C125.192 14.85 124.436 14.199 123.624 13.835C122.812 13.457 121.902 13.268 120.894 13.268C118.92 13.268 117.401 13.975 116.337 15.389C115.273 16.803 114.741 18.819 114.741 21.437C114.741 22.823 114.86 24.013 115.098 25.007C115.336 25.987 115.686 26.799 116.148 27.443C116.61 28.073 117.177 28.535 117.849 28.829C118.521 29.123 119.284 29.27 120.138 29.27C121.37 29.27 122.441 28.99 123.351 28.43C124.275 27.87 125.122 27.079 125.892 26.057V15.788ZM129.63 1.067V32H127.404C126.872 32 126.536 31.741 126.396 31.223L126.06 28.64C125.15 29.732 124.114 30.614 122.952 31.286C121.79 31.958 120.446 32.294 118.92 32.294C117.702 32.294 116.596 32.063 115.602 31.601C114.608 31.125 113.761 30.432 113.061 29.522C112.361 28.612 111.822 27.478 111.444 26.12C111.066 24.762 110.877 23.201 110.877 21.437C110.877 19.869 111.087 18.413 111.507 17.069C111.927 15.711 112.529 14.535 113.313 13.541C114.097 12.547 115.056 11.77 116.19 11.21C117.338 10.636 118.626 10.349 120.054 10.349C121.356 10.349 122.469 10.573 123.393 11.021C124.331 11.455 125.164 12.064 125.892 12.848V1.067H129.63ZM135.618 32V10.727H137.865C138.397 10.727 138.726 10.986 138.852 11.504L139.125 13.688C139.909 12.722 140.791 11.931 141.771 11.315C142.751 10.699 143.885 10.391 145.173 10.391C146.601 10.391 147.756 10.79 148.638 11.588C149.534 12.386 150.178 13.464 150.57 14.822C150.878 14.052 151.27 13.387 151.746 12.827C152.236 12.267 152.782 11.805 153.384 11.441C153.986 11.077 154.623 10.811 155.295 10.643C155.981 10.475 156.674 10.391 157.374 10.391C158.494 10.391 159.488 10.573 160.356 10.937C161.238 11.287 161.98 11.805 162.582 12.491C163.198 13.177 163.667 14.024 163.989 15.032C164.311 16.026 164.472 17.167 164.472 18.455V32H160.713V18.455C160.713 16.789 160.349 15.529 159.621 14.675C158.893 13.807 157.843 13.373 156.471 13.373C155.855 13.373 155.267 13.485 154.707 13.709C154.161 13.919 153.678 14.234 153.258 14.654C152.838 15.074 152.502 15.606 152.25 16.25C152.012 16.88 151.893 17.615 151.893 18.455V32H148.134V18.455C148.134 16.747 147.791 15.473 147.105 14.633C146.419 13.793 145.418 13.373 144.102 13.373C143.178 13.373 142.324 13.625 141.54 14.129C140.756 14.619 140.035 15.291 139.377 16.145V32H135.618ZM174.185 10.727V32H170.447V10.727H174.185ZM174.983 4.049C174.983 4.413 174.906 4.756 174.752 5.078C174.612 5.386 174.416 5.666 174.164 5.918C173.926 6.156 173.639 6.345 173.303 6.485C172.981 6.625 172.638 6.695 172.274 6.695C171.91 6.695 171.567 6.625 171.245 6.485C170.937 6.345 170.664 6.156 170.426 5.918C170.188 5.666 169.999 5.386 169.859 5.078C169.719 4.756 169.649 4.413 169.649 4.049C169.649 3.685 169.719 3.342 169.859 3.02C169.999 2.684 170.188 2.397 170.426 2.159C170.664 1.907 170.937 1.711 171.245 1.571C171.567 1.431 171.91 1.361 172.274 1.361C172.638 1.361 172.981 1.431 173.303 1.571C173.639 1.711 173.926 1.907 174.164 2.159C174.416 2.397 174.612 2.684 174.752 3.02C174.906 3.342 174.983 3.685 174.983 4.049ZM183.939 13.814C184.401 13.296 184.891 12.827 185.409 12.407C185.927 11.987 186.473 11.63 187.047 11.336C187.635 11.028 188.251 10.797 188.895 10.643C189.553 10.475 190.26 10.391 191.016 10.391C192.178 10.391 193.2 10.587 194.082 10.979C194.978 11.357 195.72 11.903 196.308 12.617C196.91 13.317 197.365 14.164 197.673 15.158C197.981 16.152 198.135 17.251 198.135 18.455V32H194.376V18.455C194.376 16.845 194.005 15.599 193.263 14.717C192.535 13.821 191.422 13.373 189.924 13.373C188.818 13.373 187.782 13.639 186.816 14.171C185.864 14.703 184.982 15.424 184.17 16.334V32H180.411V10.727H182.658C183.19 10.727 183.519 10.986 183.645 11.504L183.939 13.814Z" fill="#6D6E76"/>
</svg>
