<svg width="20" height="20" viewBox="0 0 20 20" fill="none" xmlns="http://www.w3.org/2000/svg">
<g clip-path="url(#clip0_987_2962)">
<path d="M12.9739 10.5957C12.9739 11.3856 12.66 12.1432 12.1015 12.7018C11.5429 13.2604 10.7853 13.5742 9.99535 13.5742C9.2054 13.5742 8.44781 13.2604 7.88923 12.7018C7.33065 12.1432 7.01685 11.3856 7.01685 10.5957C7.01685 9.80574 7.33065 9.04815 7.88923 8.48957C8.44781 7.93099 9.2054 7.61719 9.99535 7.61719C10.7853 7.61719 11.5429 7.93099 12.1015 8.48957C12.66 9.04815 12.9739 9.80574 12.9739 10.5957Z" fill="white"/>
<path d="M2.84716 5.23436C2.2152 5.23436 1.60912 5.48541 1.16226 5.93227C0.7154 6.37913 0.464355 6.98521 0.464355 7.61717L0.464355 14.7656C0.464355 15.3975 0.7154 16.0036 1.16226 16.4505C1.60912 16.8973 2.2152 17.1484 2.84716 17.1484H17.144C17.7759 17.1484 18.382 16.8973 18.8289 16.4505C19.2757 16.0036 19.5268 15.3975 19.5268 14.7656V7.61717C19.5268 6.98521 19.2757 6.37913 18.8289 5.93227C18.382 5.48541 17.7759 5.23436 17.144 5.23436H15.7476C15.1157 5.23423 14.5098 4.9831 14.063 4.5362L13.0765 3.54972C12.6298 3.10283 12.0238 2.8517 11.3919 2.85156H8.59924C7.96734 2.8517 7.36136 3.10283 6.9146 3.54972L5.92812 4.5362C5.48136 4.9831 4.87539 5.23423 4.24348 5.23436H2.84716ZM3.44286 7.61717C3.28487 7.61717 3.13335 7.55441 3.02163 7.44269C2.90992 7.33098 2.84716 7.17946 2.84716 7.02147C2.84716 6.86348 2.90992 6.71196 3.02163 6.60024C3.13335 6.48853 3.28487 6.42577 3.44286 6.42577C3.60085 6.42577 3.75237 6.48853 3.86408 6.60024C3.9758 6.71196 4.03856 6.86348 4.03856 7.02147C4.03856 7.17946 3.9758 7.33098 3.86408 7.44269C3.75237 7.55441 3.60085 7.61717 3.44286 7.61717ZM14.1655 10.5957C14.1655 11.7016 13.7261 12.7622 12.9441 13.5442C12.1621 14.3262 11.1015 14.7656 9.99556 14.7656C8.88964 14.7656 7.82901 14.3262 7.047 13.5442C6.26499 12.7622 5.82566 11.7016 5.82566 10.5957C5.82566 9.48974 6.26499 8.42911 7.047 7.6471C7.82901 6.86509 8.88964 6.42577 9.99556 6.42577C11.1015 6.42577 12.1621 6.86509 12.9441 7.6471C13.7261 8.42911 14.1655 9.48974 14.1655 10.5957Z" fill="white"/>
</g>
<defs>
<clipPath id="clip0_987_2962">
<rect width="19.0624" height="19.0624" fill="white" transform="translate(0.464111 0.46875)"/>
</clipPath>
</defs>
</svg>
