<svg width="18" height="18" viewBox="0 0 18 18" fill="none" xmlns="http://www.w3.org/2000/svg">
<path fill-rule="evenodd" clip-rule="evenodd" d="M6.1875 9.75C6.1875 9.00408 6.48382 8.28871 7.01126 7.76126C7.53871 7.23382 8.25408 6.9375 9 6.9375C9.74592 6.9375 10.4613 7.23382 10.9887 7.76126C11.5162 8.28871 11.8125 9.00408 11.8125 9.75C11.8125 10.4959 11.5162 11.2113 10.9887 11.7387C10.4613 12.2662 9.74592 12.5625 9 12.5625C8.25408 12.5625 7.53871 12.2662 7.01126 11.7387C6.48382 11.2113 6.1875 10.4959 6.1875 9.75ZM9 8.0625C8.55245 8.0625 8.12323 8.24029 7.80676 8.55676C7.49029 8.87323 7.3125 9.30245 7.3125 9.75C7.3125 10.1976 7.49029 10.6268 7.80676 10.9432C8.12323 11.2597 8.55245 11.4375 9 11.4375C9.44755 11.4375 9.87678 11.2597 10.1932 10.9432C10.5097 10.6268 10.6875 10.1976 10.6875 9.75C10.6875 9.30245 10.5097 8.87323 10.1932 8.55676C9.87678 8.24029 9.44755 8.0625 9 8.0625Z" fill="white"/>
<path fill-rule="evenodd" clip-rule="evenodd" d="M7.96178 4.3125C7.58544 4.3125 7.22451 4.462 6.9584 4.72812C6.69229 4.99423 6.54278 5.35516 6.54278 5.7315C6.54265 5.97239 6.45197 6.20442 6.28873 6.38156C6.12548 6.5587 5.90161 6.66799 5.66153 6.68775L3.98903 6.82275C3.82909 6.83563 3.67782 6.90076 3.55856 7.00811C3.43929 7.11545 3.35863 7.25904 3.32903 7.41675C2.99275 9.19419 2.96788 11.0165 3.25553 12.8025L3.32828 13.2555C3.39728 13.683 3.74903 14.0092 4.18103 14.0445L5.63828 14.163C7.87561 14.3445 10.124 14.3445 12.3613 14.163L13.8178 14.0445C14.0278 14.0275 14.2261 13.9405 14.3809 13.7975C14.5356 13.6544 14.6379 13.4636 14.6713 13.2555L14.744 12.8025C15.0314 11.0165 15.0063 9.19415 14.6698 7.41675C14.64 7.25918 14.5593 7.11576 14.4401 7.00856C14.3208 6.90136 14.1696 6.83634 14.0098 6.8235L12.338 6.68775C12.0978 6.66833 11.8738 6.55914 11.7104 6.38192C11.5471 6.20471 11.4566 5.97249 11.4568 5.7315C11.4568 5.54515 11.4201 5.36063 11.3488 5.18847C11.2775 5.01631 11.1729 4.85988 11.0412 4.72812C10.9094 4.59635 10.753 4.49183 10.5808 4.42051C10.4087 4.3492 10.2241 4.3125 10.0378 4.3125H7.96178ZM5.42228 5.5785C5.46145 4.93149 5.74603 4.32382 6.21796 3.87948C6.68989 3.43515 7.31359 3.18765 7.96178 3.1875H10.0378C11.3915 3.1875 12.4978 4.245 12.5773 5.5785L14.1013 5.70225C14.5067 5.73498 14.8902 5.90003 15.1926 6.172C15.4951 6.44397 15.6998 6.8078 15.7753 7.2075C16.136 9.1125 16.163 11.0662 15.8548 12.981L15.782 13.4347C15.7085 13.8912 15.4841 14.3098 15.1446 14.6236C14.8051 14.9374 14.3701 15.1283 13.9093 15.1657L12.4528 15.2842C10.1546 15.4709 7.845 15.4709 5.54678 15.2842L4.09028 15.1657C3.62947 15.1283 3.19452 14.9374 2.855 14.6236C2.51549 14.3098 2.29103 13.8912 2.21753 13.4347L2.14478 12.981C1.83666 11.0664 1.86356 9.11287 2.22428 7.2075C2.29986 6.80785 2.50461 6.4441 2.80705 6.17214C3.10949 5.90019 3.49288 5.7351 3.89828 5.70225L5.42228 5.5785Z" fill="white"/>
</svg>
