<svg width="40" height="41" viewBox="0 0 40 41" fill="none" xmlns="http://www.w3.org/2000/svg">
<path d="M30 26.7197C29.375 26.7197 28.75 26.4697 28.25 25.9697L24.5 22.2197C24 21.7197 23.75 21.0947 23.75 20.4697C23.75 19.8447 24 19.2197 24.5 18.7197L28.25 14.9697C28.75 14.4697 29.375 14.2197 30 14.2197C30.625 14.2197 31.25 14.4697 31.75 14.9697L35.5 18.7197C36 19.2197 36.25 19.8447 36.25 20.4697C36.25 21.0947 36 21.7197 35.5 22.2197L31.75 25.9697C31.25 26.4697 30.625 26.7197 30 26.7197ZM30 16.7197L26.25 20.4697L30 24.2197L33.75 20.4697L30 16.7197ZM20 16.7197C19.375 16.7197 18.75 16.4697 18.25 15.9697L14.5 12.2197C14 11.7197 13.75 11.0947 13.75 10.4697C13.75 9.84473 14 9.21973 14.5 8.71973L18.25 4.96973C18.75 4.46973 19.375 4.21973 20 4.21973C20.625 4.21973 21.25 4.46973 21.75 4.96973L25.5 8.71973C26 9.21973 26.25 9.84473 26.25 10.4697C26.25 11.0947 26 11.7197 25.5 12.2197L21.75 15.9697C21.25 16.4697 20.625 16.7197 20 16.7197ZM20 6.71973L16.25 10.4697L20 14.2197L23.75 10.4697L20 6.71973ZM20 36.7197C19.375 36.7197 18.75 36.4697 18.25 35.9697L14.5 32.2197C14 31.7197 13.75 31.0947 13.75 30.4697C13.75 29.8447 14 29.2197 14.5 28.7197L18.25 24.9697C18.75 24.4697 19.375 24.2197 20 24.2197C20.625 24.2197 21.25 24.4697 21.75 24.9697L25.5 28.7197C26 29.2197 26.25 29.8447 26.25 30.4697C26.25 31.0947 26 31.7197 25.5 32.2197L21.75 35.9697C21.25 36.4697 20.625 36.7197 20 36.7197ZM20 26.7197L16.25 30.4697L20 34.2197L23.75 30.4697L20 26.7197ZM10 26.7197C9.375 26.7197 8.75 26.4697 8.25 25.9697L4.5 22.2197C4 21.7197 3.75 21.0947 3.75 20.4697C3.75 19.8447 4 19.2197 4.5 18.7197L8.25 14.9697C8.75 14.4697 9.375 14.2197 10 14.2197C10.625 14.2197 11.25 14.4697 11.75 14.9697L15.5 18.7197C16 19.2197 16.25 19.8447 16.25 20.4697C16.25 21.0947 16 21.7197 15.5 22.2197L11.75 25.9697C11.25 26.4697 10.625 26.7197 10 26.7197ZM10 16.7197L6.25 20.4697L10 24.2197L13.75 20.4697L10 16.7197Z" fill="#34449C"/>
</svg>
