<svg width="17" height="17" viewBox="0 0 17 17" fill="none" xmlns="http://www.w3.org/2000/svg">
<path d="M3.41667 7.66699L8 0.166992L12.5833 7.66699H3.41667ZM12.5833 16.8337C11.5417 16.8337 10.6564 16.4692 9.9275 15.7403C9.19861 15.0114 8.83389 14.1259 8.83333 13.0837C8.83278 12.0414 9.1975 11.1562 9.9275 10.4278C10.6575 9.69949 11.5428 9.33477 12.5833 9.33366C13.6239 9.33255 14.5094 9.69727 15.24 10.4278C15.9706 11.1584 16.335 12.0437 16.3333 13.0837C16.3317 14.1237 15.9672 15.0092 15.24 15.7403C14.5128 16.4714 13.6272 16.8359 12.5833 16.8337ZM0.5 16.417V9.75033H7.16667V16.417H0.5Z" fill="white"/>
</svg>
