<svg width="17" height="17" viewBox="0 0 17 17" fill="none" xmlns="http://www.w3.org/2000/svg">
<path d="M3.41667 7.66602L8 0.166016L12.5833 7.66602H3.41667ZM12.5833 16.8327C11.5417 16.8327 10.6564 16.4682 9.9275 15.7393C9.19861 15.0105 8.83389 14.1249 8.83333 13.0827C8.83278 12.0405 9.1975 11.1552 9.9275 10.4268C10.6575 9.69851 11.5428 9.33379 12.5833 9.33268C13.6239 9.33157 14.5094 9.69629 15.24 10.4268C15.9706 11.1574 16.335 12.0427 16.3333 13.0827C16.3317 14.1227 15.9672 15.0082 15.24 15.7393C14.5128 16.4705 13.6272 16.8349 12.5833 16.8327ZM0.5 16.416V9.74935H7.16667V16.416H0.5Z" fill="#C9CED4" fill-opacity="0.6"/>
</svg>
