<svg width="18" height="17" viewBox="0 0 18 17" fill="none" xmlns="http://www.w3.org/2000/svg">
<path d="M4.83366 10.9668H13.167C13.4031 10.9668 13.6012 10.8868 13.7612 10.7268C13.9212 10.5668 14.0009 10.369 14.0003 10.1335C13.9998 9.89791 13.9198 9.70013 13.7603 9.54013C13.6009 9.38013 13.4031 9.30013 13.167 9.30013H4.83366C4.59755 9.30013 4.39977 9.38013 4.24033 9.54013C4.08088 9.70013 4.00088 9.89791 4.00033 10.1335C3.99977 10.369 4.07977 10.5671 4.24033 10.7276C4.40088 10.8882 4.59866 10.9679 4.83366 10.9668ZM4.83366 8.4668H13.167C13.4031 8.4668 13.6012 8.3868 13.7612 8.2268C13.9212 8.0668 14.0009 7.86902 14.0003 7.63346C13.9998 7.39791 13.9198 7.20013 13.7603 7.04013C13.6009 6.88013 13.4031 6.80013 13.167 6.80013H4.83366C4.59755 6.80013 4.39977 6.88013 4.24033 7.04013C4.08088 7.20013 4.00088 7.39791 4.00033 7.63346C3.99977 7.86902 4.07977 8.06707 4.24033 8.22763C4.40088 8.38819 4.59866 8.46791 4.83366 8.4668ZM4.83366 5.9668H13.167C13.4031 5.9668 13.6012 5.8868 13.7612 5.7268C13.9212 5.5668 14.0009 5.36902 14.0003 5.13346C13.9998 4.89791 13.9198 4.70013 13.7603 4.54013C13.6009 4.38013 13.4031 4.30013 13.167 4.30013H4.83366C4.59755 4.30013 4.39977 4.38013 4.24033 4.54013C4.08088 4.70013 4.00088 4.89791 4.00033 5.13346C3.99977 5.36902 4.07977 5.56707 4.24033 5.72763C4.40088 5.88819 4.59866 5.96791 4.83366 5.9668ZM2.33366 14.3001C1.87533 14.3001 1.4831 14.1371 1.15699 13.811C0.830881 13.4849 0.667548 13.0924 0.666992 12.6335V2.63346C0.666992 2.17513 0.830326 1.78291 1.15699 1.4568C1.48366 1.13069 1.87588 0.967352 2.33366 0.966797H15.667C16.1253 0.966797 16.5178 1.13013 16.8445 1.4568C17.1712 1.78346 17.3342 2.17569 17.3337 2.63346V15.6126C17.3337 15.9876 17.1637 16.2482 16.8237 16.3943C16.4837 16.5404 16.1814 16.4812 15.917 16.2168L14.0003 14.3001H2.33366Z" fill="#C9CED4" fill-opacity="0.6"/>
</svg>
