<svg width="18" height="17" viewBox="0 0 18 17" fill="none" xmlns="http://www.w3.org/2000/svg">
<path d="M4.83317 10.9648H13.1665C13.4026 10.9648 13.6007 10.8848 13.7607 10.7248C13.9207 10.5648 14.0004 10.3671 13.9998 10.1315C13.9993 9.89596 13.9193 9.69818 13.7598 9.53818C13.6004 9.37818 13.4026 9.29818 13.1665 9.29818H4.83317C4.59706 9.29818 4.39928 9.37818 4.23984 9.53818C4.08039 9.69818 4.00039 9.89596 3.99984 10.1315C3.99928 10.3671 4.07928 10.5651 4.23984 10.7257C4.40039 10.8862 4.59817 10.966 4.83317 10.9648ZM4.83317 8.46484H13.1665C13.4026 8.46484 13.6007 8.38484 13.7607 8.22484C13.9207 8.06484 14.0004 7.86707 13.9998 7.63151C13.9993 7.39595 13.9193 7.19818 13.7598 7.03818C13.6004 6.87818 13.4026 6.79818 13.1665 6.79818H4.83317C4.59706 6.79818 4.39928 6.87818 4.23984 7.03818C4.08039 7.19818 4.00039 7.39595 3.99984 7.63151C3.99928 7.86707 4.07928 8.06512 4.23984 8.22568C4.40039 8.38623 4.59817 8.46595 4.83317 8.46484ZM4.83317 5.96484H13.1665C13.4026 5.96484 13.6007 5.88484 13.7607 5.72484C13.9207 5.56484 14.0004 5.36707 13.9998 5.13151C13.9993 4.89595 13.9193 4.69818 13.7598 4.53818C13.6004 4.37818 13.4026 4.29818 13.1665 4.29818H4.83317C4.59706 4.29818 4.39928 4.37818 4.23984 4.53818C4.08039 4.69818 4.00039 4.89595 3.99984 5.13151C3.99928 5.36707 4.07928 5.56512 4.23984 5.72568C4.40039 5.88623 4.59817 5.96595 4.83317 5.96484ZM2.33317 14.2982C1.87484 14.2982 1.48262 14.1351 1.1565 13.809C0.830393 13.4829 0.667059 13.0904 0.666504 12.6315V2.63151C0.666504 2.17318 0.829837 1.78095 1.1565 1.45484C1.48317 1.12873 1.87539 0.965399 2.33317 0.964844H15.6665C16.1248 0.964844 16.5173 1.12818 16.844 1.45484C17.1707 1.78151 17.3337 2.17373 17.3332 2.63151V15.6107C17.3332 15.9857 17.1632 16.2462 16.8232 16.3923C16.4832 16.5385 16.1809 16.4793 15.9165 16.2148L13.9998 14.2982H2.33317Z" fill="white"/>
</svg>
