<svg width="36" height="36" viewBox="0 0 36 36" fill="none" xmlns="http://www.w3.org/2000/svg">
<path d="M17.1536 4.33124C17.3083 4.54553 17.3893 4.80431 17.3842 5.06859C17.3791 5.33287 17.2883 5.58835 17.1254 5.79655C16.1889 6.99468 14.2033 9.39374 12.2289 10.8506C9.79325 12.6506 7.57419 13.4578 6.44357 13.7869C5.94294 13.9331 5.40857 13.739 5.10763 13.3144C4.36513 12.2709 3.18388 10.035 3.64794 6.87092C4.30325 2.37092 9.45857 0.199675 12.7998 1.27967C16.1411 2.35967 17.1536 4.33124 17.1536 4.33124Z" fill="#FFC107"/>
<path d="M6.89113 12.9459C6.56207 13.0837 6.26394 12.6984 6.47488 12.4144C7.09363 11.5875 8.29457 10.2319 10.4855 8.46561C12.8621 6.55029 14.5468 5.87248 15.4664 5.63342C15.7843 5.55186 16.0289 5.90904 15.8377 6.17623C15.2161 7.04811 13.9083 8.63998 11.768 10.1672C9.69238 11.6494 7.93176 12.5072 6.89113 12.9459Z" fill="url(#paint0_radial_221_1475)"/>
<path d="M9.20502 2.45811C9.33439 3.01499 10.0375 3.20905 10.7181 3.09374C11.455 2.96999 12.3831 2.86592 12.296 2.1178C12.206 1.34436 10.9741 1.3753 10.5185 1.40061C9.85189 1.43999 9.0897 1.96592 9.20502 2.45811Z" fill="#FFEE58"/>
<path d="M23.6962 1.04623C27.0599 0.140602 31.9987 1.29935 32.9887 7.12685C33.3656 9.34029 32.4853 11.3006 31.8693 12.3469C31.5656 12.8644 30.9721 13.14 30.3843 13.0219C29.2368 12.7912 27.0993 12.1472 24.2362 10.3584C22.6443 9.3656 20.4787 7.4306 19.2524 6.29154C18.6984 5.77685 18.6449 4.91341 19.1428 4.34248C20.1159 3.22591 21.8287 1.54966 23.6962 1.04623Z" fill="#FFC107"/>
<path d="M20.6496 6.32812C20.4724 6.15093 20.6412 5.85281 20.8859 5.91468C21.9603 6.18468 23.9431 6.78937 25.7037 7.88906C27.5093 9.01968 29.3346 10.7381 30.2599 11.6578C30.4428 11.8378 30.2628 12.1416 30.0153 12.0684C28.8846 11.7394 26.8062 11.0081 24.7503 9.62156C22.6606 8.2125 21.3303 7.00593 20.6496 6.32812Z" fill="url(#paint1_radial_221_1475)"/>
<path d="M23.51 3.33006C22.399 3.67881 22.0869 2.89412 22.6803 2.29787C23.1078 1.86756 24.9106 1.09974 26.4744 1.42599C27.5065 1.64256 27.83 3.13037 26.3759 3.11068C25.3859 3.09662 24.8712 2.90256 23.51 3.33006Z" fill="#FFEE58"/>
<path d="M30.9426 33.7641C27.4411 31.5619 25.0955 27.2729 24.668 22.2891C24.2826 17.7863 25.3739 13.2272 26.2514 9.56536L28.0514 10.3838C27.2133 13.8882 26.5551 17.955 26.9095 22.095C27.2751 26.3785 29.2326 30.0291 32.1408 31.8572L30.9426 33.7641ZM17.0376 32.9879L16.1095 30.9375C17.2092 30.4397 17.8448 28.9969 17.468 27.8522C17.2851 27.2925 16.8914 26.7582 16.478 26.1929C16.1405 25.7316 15.7889 25.2535 15.502 24.705C14.7539 23.2707 14.5767 21.555 15.0211 19.9997C15.2461 19.215 15.6033 18.5204 15.952 17.8482C16.3458 17.0888 16.7142 16.3744 16.8098 15.6544C16.897 14.9879 16.7395 14.2819 16.3739 13.7166C16.042 13.2075 15.5301 12.7688 14.9873 12.3075C14.5767 11.956 14.1492 11.5932 13.7583 11.1657C12.833 10.1532 12.473 8.94661 12.4786 7.59942L14.0451 7.00598C14.0451 7.00598 14.3292 8.53598 14.7117 9.14629C15.1139 9.78473 15.713 10.2179 16.2811 10.7016C16.9223 11.25 17.752 11.7085 18.2611 12.496C18.9136 13.5029 19.1976 14.7629 19.0401 15.9554C18.8939 17.0635 18.413 17.9916 17.9489 18.8888C17.6395 19.4879 17.347 20.0532 17.1839 20.6241C16.897 21.631 17.0095 22.7419 17.4961 23.67C17.7042 24.0694 17.9883 24.4575 18.292 24.871C18.7926 25.5544 19.3101 26.2575 19.6055 27.1575C20.3451 29.3935 19.192 32.0147 17.0376 32.9879Z" fill="#03A9F4"/>
<path d="M2.95531 34.681L1.625 32.8669C10.1553 26.6175 11.0638 17.4657 10.4619 12.8025L12.1606 12.2822C12.8272 17.4375 12.4166 27.751 2.95531 34.681Z" fill="#F48FB1"/>
<path d="M26.6972 20.6325L26.8462 20.7478C26.8294 19.8225 26.8744 18.8916 26.9616 17.9691C26.2078 17.3419 25.5047 16.6697 24.9984 15.8822C24.9844 15.8597 24.9731 15.8372 24.9591 15.8147C24.8072 16.8272 24.6891 17.8622 24.6328 18.9056C25.305 19.5497 26.025 20.1122 26.6972 20.6325Z" fill="#0076C6"/>
<path d="M32.3232 26.8172L30.2813 25.8694C30.8017 24.75 30.3657 23.3972 29.7863 22.5057C29.0326 21.3469 27.8457 20.4244 26.6954 19.5329C25.4607 18.5766 24.0629 17.4938 23.101 15.9947C21.332 13.2413 21.6442 9.81286 23.6382 7.21692L25.2723 8.13098C23.8379 10.0013 23.7226 12.7941 24.9938 14.7769C25.7448 15.9497 26.9288 16.8638 28.0735 17.7525C29.311 18.7116 30.7117 19.7972 31.6735 21.2766C32.8323 23.0625 33.0826 25.186 32.3232 26.8172ZM2.52759 26.041C2.10572 23.656 3.84947 22.4213 4.78603 21.7575C4.89853 21.6788 5.03634 21.5804 5.13197 21.5044C5.12353 21.3047 4.98853 21.0544 4.73541 20.6297C4.31916 19.9294 3.75103 18.9675 4.18697 17.7441C4.56666 16.681 5.66916 16.3294 6.40041 15.9188C7.02478 15.5672 7.47759 15.1397 7.70259 14.4254C7.96416 13.5929 7.78134 11.5004 7.78134 11.5004L9.15384 10.6988C9.15384 10.6988 9.58697 12.6985 9.58697 13.7166C9.58697 16.6022 7.98666 17.3391 7.31166 17.7188C6.84478 17.9804 6.40322 18.2279 6.30759 18.4979C6.23728 18.6947 6.33572 18.9169 6.67322 19.485C7.07822 20.1657 7.62947 21.1022 7.26947 22.2975C7.09509 22.8797 6.60572 23.2285 6.08822 23.5941C5.17134 24.2438 4.58072 24.7388 4.74384 25.65L2.52759 26.041ZM21.107 23.1357C20.1057 22.8966 19.4223 22.3004 18.8092 21.7941L20.2435 20.0588C20.2435 20.0588 20.7526 20.8154 21.8692 21.1641L21.107 23.1357ZM19.3013 10.4738L17.6392 9.49786L18.8429 7.59379L20.5079 8.56973L19.3013 10.4738ZM23.6157 31.9388L21.3742 30.5466L23.1038 28.6229L24.8335 30.2654L23.6157 31.9388Z" fill="#F44336"/>
<path d="M30.7148 16.9217L32.0339 15.0992L33.9914 16.5156L32.6721 18.3381L30.7148 16.9217Z" fill="#FB8C00"/>
<path d="M14.8762 16.0481L12.8906 14.6756L13.9228 13.3059L15.9056 14.6784L14.8762 16.0481Z" fill="#F44336"/>
<path d="M17.2773 18.4472C17.2773 18.4472 17.6598 18.4331 18.1352 18.5259C18.4783 17.8509 18.8045 17.1478 18.9733 16.3575C18.3883 16.2253 17.9186 16.29 17.9186 16.29L17.2773 18.4472Z" fill="#0076C6"/>
<path d="M19.9457 18.7116C19.161 18.0422 17.8503 18.09 17.8503 18.09L18.4888 15.9328C18.4888 15.9328 19.94 15.7303 20.9188 16.7513L19.9457 18.7116ZM1.30469 27.6497L3.34572 27.5248L3.48269 29.7709L1.44194 29.8952L1.30469 27.6497ZM12.141 27.256L10.8444 25.4166C11.4182 25.0116 11.9441 24.5307 12.3997 23.9935L14.1153 25.4503C13.535 26.1321 12.8718 26.7387 12.141 27.256Z" fill="#FB8C00"/>
<path d="M12.1575 32.4535C11.4825 31.8966 10.7681 31.3791 10.0312 30.9122L11.235 29.011C12.0506 29.5257 12.8409 30.0994 13.5891 30.7154L12.1575 32.4535Z" fill="#F44336"/>
<path d="M24.707 22.5253C24.7858 23.4563 24.8955 24.1256 25.1036 24.9975L26.5858 23.8078L25.143 22.005L24.707 22.5253Z" fill="#0076C6"/>
<path d="M22.3223 23.9608L24.5891 22.1437L25.9962 23.899L23.7294 25.7164L22.3223 23.9608Z" fill="#FFC107"/>
<path d="M21.5498 35.2294C21.156 34.5066 20.7145 33.8007 20.2363 33.1313L22.0673 31.8235C22.6006 32.5699 23.0871 33.3485 23.5241 34.155L21.5498 35.2294Z" fill="#FB8C00"/>
<defs>
<radialGradient id="paint0_radial_221_1475" cx="0" cy="0" r="1" gradientUnits="userSpaceOnUse" gradientTransform="translate(11.1554 9.29979) scale(4.24744 4.24744)">
<stop offset="0.376" stop-color="#AF5700"/>
<stop offset="1" stop-color="#8F4700"/>
</radialGradient>
<radialGradient id="paint1_radial_221_1475" cx="0" cy="0" r="1" gradientUnits="userSpaceOnUse" gradientTransform="translate(25.4537 8.99156) scale(5.96925)">
<stop offset="0.376" stop-color="#AF5700"/>
<stop offset="1" stop-color="#8F4700"/>
</radialGradient>
</defs>
</svg>
