<svg width="34" height="34" viewBox="0 0 34 34" fill="none" xmlns="http://www.w3.org/2000/svg">
<rect x="0.163574" width="33.8365" height="33.8365" rx="16.9182" fill="#EDEDED"/>
<path d="M16.2 21H13C11.8933 21 10.9501 20.6099 10.1704 19.8296C9.39067 19.0493 9.00053 18.1061 9 17C8.99947 15.8939 9.3896 14.9507 10.1704 14.1704C10.9512 13.3901 11.8944 13 13 13H16.2V14.6H13C12.3333 14.6 11.7667 14.8333 11.3 15.3C10.8333 15.7667 10.6 16.3333 10.6 17C10.6 17.6667 10.8333 18.2333 11.3 18.7C11.7667 19.1667 12.3333 19.4 13 19.4H16.2V21ZM13.8 17.8V16.2H20.2V17.8H13.8ZM17.8 21V19.4H21C21.6667 19.4 22.2333 19.1667 22.7 18.7C23.1667 18.2333 23.4 17.6667 23.4 17C23.4 16.3333 23.1667 15.7667 22.7 15.3C22.2333 14.8333 21.6667 14.6 21 14.6H17.8V13H21C22.1067 13 23.0501 13.3901 23.8304 14.1704C24.6107 14.9507 25.0005 15.8939 25 17C24.9995 18.1061 24.6093 19.0496 23.8296 19.8304C23.0499 20.6112 22.1067 21.0011 21 21H17.8Z" fill="#ACABAB"/>
</svg>
