<svg width="13" height="12" viewBox="0 0 13 12" fill="none" xmlns="http://www.w3.org/2000/svg">
<path d="M5.75192 0.481435C5.91345 0.204105 6.31409 0.204105 6.47562 0.481435L8.18693 3.41956C8.2461 3.52115 8.34525 3.59319 8.46015 3.61807L11.7833 4.33769C12.097 4.40561 12.2208 4.78665 12.0069 5.02597L9.74144 7.56145C9.6631 7.64912 9.62523 7.76568 9.63707 7.88265L9.97958 11.2655C10.0119 11.5848 9.68778 11.8203 9.39409 11.6909L6.28263 10.3198C6.17505 10.2724 6.05249 10.2724 5.94491 10.3198L2.83345 11.6909C2.53976 11.8203 2.21562 11.5848 2.24795 11.2655L2.59047 7.88265C2.60231 7.76568 2.56444 7.64912 2.4861 7.56145L0.220604 5.02597C0.00676319 4.78665 0.13057 4.40561 0.444242 4.33769L3.76739 3.61807C3.88229 3.59319 3.98144 3.52115 4.04061 3.41956L5.75192 0.481435Z" fill="#6D6E76"/>
</svg>
