<svg width="21" height="21" viewBox="0 0 21 21" fill="none" xmlns="http://www.w3.org/2000/svg">
<path d="M1.5 11.625H8.25C8.86875 11.625 9.375 11.1187 9.375 10.5V1.5C9.375 0.88125 8.86875 0.375 8.25 0.375H1.5C0.88125 0.375 0.375 0.88125 0.375 1.5V10.5C0.375 11.1187 0.88125 11.625 1.5 11.625ZM1.5 20.625H8.25C8.86875 20.625 9.375 20.1187 9.375 19.5V15C9.375 14.3813 8.86875 13.875 8.25 13.875H1.5C0.88125 13.875 0.375 14.3813 0.375 15V19.5C0.375 20.1187 0.88125 20.625 1.5 20.625ZM12.75 20.625H19.5C20.1187 20.625 20.625 20.1187 20.625 19.5V10.5C20.625 9.88125 20.1187 9.375 19.5 9.375H12.75C12.1313 9.375 11.625 9.88125 11.625 10.5V19.5C11.625 20.1187 12.1313 20.625 12.75 20.625ZM11.625 1.5V6C11.625 6.61875 12.1313 7.125 12.75 7.125H19.5C20.1187 7.125 20.625 6.61875 20.625 6V1.5C20.625 0.88125 20.1187 0.375 19.5 0.375H12.75C12.1313 0.375 11.625 0.88125 11.625 1.5Z" fill="white"/>
</svg>
