<svg width="21" height="21" viewBox="0 0 21 21" fill="none" xmlns="http://www.w3.org/2000/svg">
<path d="M11.625 6V1.5C11.625 1.18125 11.733 0.91425 11.949 0.699C12.165 0.48375 12.432 0.37575 12.75 0.375H19.5C19.8188 0.375 20.0861 0.483 20.3021 0.699C20.5181 0.915 20.6257 1.182 20.625 1.5V6C20.625 6.31875 20.517 6.58613 20.301 6.80213C20.085 7.01813 19.818 7.12575 19.5 7.125H12.75C12.4312 7.125 12.1643 7.017 11.949 6.801C11.7338 6.585 11.6257 6.318 11.625 6ZM0.375 10.5V1.5C0.375 1.18125 0.483 0.91425 0.699 0.699C0.915 0.48375 1.182 0.37575 1.5 0.375H8.25C8.56875 0.375 8.83613 0.483 9.05212 0.699C9.26813 0.915 9.37575 1.182 9.375 1.5V10.5C9.375 10.8188 9.267 11.0861 9.051 11.3021C8.835 11.5181 8.568 11.6257 8.25 11.625H1.5C1.18125 11.625 0.91425 11.517 0.699 11.301C0.48375 11.085 0.37575 10.818 0.375 10.5ZM11.625 19.5V10.5C11.625 10.1812 11.733 9.91425 11.949 9.699C12.165 9.48375 12.432 9.37575 12.75 9.375H19.5C19.8188 9.375 20.0861 9.483 20.3021 9.699C20.5181 9.915 20.6257 10.182 20.625 10.5V19.5C20.625 19.8188 20.517 20.0861 20.301 20.3021C20.085 20.5181 19.818 20.6257 19.5 20.625H12.75C12.4312 20.625 12.1643 20.517 11.949 20.301C11.7338 20.085 11.6257 19.818 11.625 19.5ZM0.375 19.5V15C0.375 14.6812 0.483 14.4143 0.699 14.199C0.915 13.9838 1.182 13.8757 1.5 13.875H8.25C8.56875 13.875 8.83613 13.983 9.05212 14.199C9.26813 14.415 9.37575 14.682 9.375 15V19.5C9.375 19.8188 9.267 20.0861 9.051 20.3021C8.835 20.5181 8.568 20.6257 8.25 20.625H1.5C1.18125 20.625 0.91425 20.517 0.699 20.301C0.48375 20.085 0.37575 19.818 0.375 19.5ZM2.625 9.375H7.125V2.625H2.625V9.375ZM13.875 18.375H18.375V11.625H13.875V18.375ZM13.875 4.875H18.375V2.625H13.875V4.875ZM2.625 18.375H7.125V16.125H2.625V18.375Z" fill="white"/>
</svg>
