<svg width="81" height="81" viewBox="0 0 81 81" fill="none" xmlns="http://www.w3.org/2000/svg">
<rect x="0.609863" y="0.505371" width="79.8249" height="79.8249" rx="39.9124" fill="#34449C" fill-opacity="0.2"/>
<path d="M30.7349 25.0053C30.9833 24.7387 31.1185 24.3861 31.1121 24.0218C31.1057 23.6575 30.9581 23.3099 30.7004 23.0523C30.4428 22.7946 30.0952 22.647 29.7309 22.6406C29.3665 22.6342 29.014 22.7694 28.7474 23.0178L25.0536 26.7116L24.1724 25.8303C23.9058 25.5819 23.5532 25.4467 23.1889 25.4531C22.8246 25.4595 22.477 25.6071 22.2193 25.8648C21.9617 26.1224 21.8141 26.47 21.8077 26.8343C21.8013 27.1986 21.9365 27.5512 22.1849 27.8178L24.0599 29.6928C24.3236 29.9561 24.681 30.1041 25.0536 30.1041C25.4263 30.1041 25.7837 29.9561 26.0474 29.6928L30.7349 25.0053ZM38.6474 50.7303C38.6474 51.3728 38.6961 52.0022 38.7936 52.6184H36.3036C35.9473 52.6183 35.6044 52.483 35.344 52.2397C35.0837 51.9965 34.9254 51.6635 34.9011 51.308C34.8768 50.9526 34.9883 50.6011 35.2132 50.3247C35.438 50.0484 35.7594 49.8676 36.1124 49.8191L36.3036 49.8059H38.6811C38.659 50.1136 38.6478 50.4219 38.6474 50.7303ZM50.8349 38.5428C53.1351 38.5391 55.389 39.1893 57.3336 40.4178H57.8661L58.0574 40.4047C58.4104 40.3561 58.7317 40.1754 58.9566 39.899C59.1814 39.6226 59.293 39.2712 59.2687 38.9157C59.2444 38.5602 59.0861 38.2272 58.8257 37.984C58.5654 37.7408 58.2224 37.6054 57.8661 37.6053H36.3036L36.1124 37.6184C35.7594 37.667 35.438 37.8477 35.2132 38.1241C34.9883 38.4005 34.8768 38.7519 34.9011 39.1074C34.9254 39.4629 35.0837 39.7959 35.344 40.0391C35.6044 40.2823 35.9473 40.4177 36.3036 40.4178H44.3361C46.2808 39.1893 48.5347 38.5391 50.8349 38.5428ZM57.8661 25.4178H36.3036L36.1124 25.4309C35.7594 25.4795 35.438 25.6602 35.2132 25.9366C34.9883 26.213 34.8768 26.5644 34.9011 26.9199C34.9254 27.2754 35.0837 27.6084 35.344 27.8516C35.6044 28.0948 35.9473 28.2302 36.3036 28.2303H57.8661L58.0574 28.2172C58.4104 28.1686 58.7317 27.9879 58.9566 27.7115C59.1814 27.4351 59.293 27.0837 59.2687 26.7282C59.2444 26.3727 59.0861 26.0397 58.8257 25.7965C58.5654 25.5533 58.2224 25.4179 57.8661 25.4178ZM30.7349 49.3803C30.873 49.2516 30.9839 49.0963 31.0607 48.9238C31.1376 48.7513 31.1789 48.5651 31.1822 48.3763C31.1856 48.1875 31.1508 47.9999 31.0801 47.8248C31.0094 47.6497 30.9041 47.4906 30.7706 47.3571C30.637 47.2236 30.478 47.1183 30.3029 47.0476C30.1278 46.9768 29.9402 46.9421 29.7514 46.9454C29.5626 46.9488 29.3764 46.9901 29.2039 47.067C29.0314 47.1438 28.8761 47.2546 28.7474 47.3928L25.0536 51.0866L24.1724 50.2053C23.9058 49.9569 23.5532 49.8217 23.1889 49.8281C22.8246 49.8345 22.477 49.9821 22.2193 50.2398C21.9617 50.4974 21.8141 50.845 21.8077 51.2093C21.8013 51.5736 21.9365 51.9262 22.1849 52.1928L24.0599 54.0678C24.3236 54.3312 24.681 54.4791 25.0536 54.4791C25.4263 54.4791 25.7837 54.3312 26.0474 54.0678L30.7349 49.3803ZM30.7349 35.2053C30.9982 35.469 31.1461 35.8264 31.1461 36.1991C31.1461 36.5717 30.9982 36.9291 30.7349 37.1928L26.0474 41.8803C25.7837 42.1436 25.4263 42.2916 25.0536 42.2916C24.681 42.2916 24.3236 42.1436 24.0599 41.8803L22.1849 40.0053C22.0467 39.8766 21.9359 39.7213 21.859 39.5488C21.7822 39.3763 21.7409 39.1901 21.7375 39.0013C21.7342 38.8125 21.7689 38.6249 21.8397 38.4498C21.9104 38.2747 22.0157 38.1156 22.1492 37.9821C22.2827 37.8486 22.4418 37.7433 22.6169 37.6726C22.792 37.6018 22.9795 37.5671 23.1684 37.5704C23.3572 37.5738 23.5434 37.6151 23.7159 37.692C23.8884 37.7688 24.0436 37.8796 24.1724 38.0178L25.0536 38.8991L28.7474 35.2053C29.0111 34.942 29.3685 34.794 29.7411 34.794C30.1138 34.794 30.4712 34.942 30.7349 35.2053ZM61.1474 50.7303C61.1474 47.9953 60.0609 45.3722 58.1269 43.4383C56.193 41.5043 53.5699 40.4178 50.8349 40.4178C48.0998 40.4178 45.4768 41.5043 43.5428 43.4383C41.6089 45.3722 40.5224 47.9953 40.5224 50.7303C40.5224 53.4653 41.6089 56.0884 43.5428 58.0223C45.4768 59.9563 48.0998 61.0428 50.8349 61.0428C53.5699 61.0428 56.193 59.9563 58.1269 58.0223C60.0609 56.0884 61.1474 53.4653 61.1474 50.7303ZM51.7724 51.6678L51.7743 56.3609C51.7743 56.6096 51.6755 56.848 51.4997 57.0238C51.3239 57.1997 51.0854 57.2984 50.8368 57.2984C50.5881 57.2984 50.3497 57.1997 50.1738 57.0238C49.998 56.848 49.8993 56.6096 49.8993 56.3609V51.6678H45.2024C44.9537 51.6678 44.7153 51.569 44.5395 51.3932C44.3637 51.2174 44.2649 50.9789 44.2649 50.7303C44.2649 50.4817 44.3637 50.2432 44.5395 50.0674C44.7153 49.8916 44.9537 49.7928 45.2024 49.7928H49.8974V45.1053C49.8974 44.8567 49.9962 44.6182 50.172 44.4424C50.3478 44.2666 50.5862 44.1678 50.8349 44.1678C51.0835 44.1678 51.322 44.2666 51.4978 44.4424C51.6736 44.6182 51.7724 44.8567 51.7724 45.1053V49.7928H56.4543C56.7029 49.7928 56.9414 49.8916 57.1172 50.0674C57.293 50.2432 57.3918 50.4817 57.3918 50.7303C57.3918 50.9789 57.293 51.2174 57.1172 51.3932C56.9414 51.569 56.7029 51.6678 56.4543 51.6678H51.7724Z" fill="#34449C"/>
</svg>
