<svg width="16" height="14" viewBox="0 0 16 14" fill="none" xmlns="http://www.w3.org/2000/svg">
<path d="M1.7601 13.5996H14.2401C15.1827 12.4236 15.7738 11.0052 15.9453 9.50793C16.1168 8.01062 15.8618 6.49532 15.2097 5.13663C14.5575 3.77794 13.5347 2.63116 12.2591 1.82845C10.9836 1.02574 9.50721 0.599766 8.0001 0.599609C6.493 0.599766 5.01661 1.02574 3.74106 1.82845C2.46551 2.63116 1.44272 3.77794 0.790553 5.13663C0.138382 6.49532 -0.116628 8.01062 0.0549091 9.50793C0.226446 11.0052 0.817549 12.4236 1.7601 13.5996ZM8.0001 1.59961C8.5501 1.59961 9.0001 2.04961 9.0001 2.59961C9.0001 3.14961 8.5501 3.59961 8.0001 3.59961C7.4501 3.59961 7.0001 3.14961 7.0001 2.59961C7.0001 2.04961 7.4501 1.59961 8.0001 1.59961ZM4.0001 3.59961C4.5501 3.59961 5.0001 4.04961 5.0001 4.59961C5.0001 5.14961 4.5501 5.59961 4.0001 5.59961C3.4501 5.59961 3.0001 5.14961 3.0001 4.59961C3.0001 4.04961 3.4501 3.59961 4.0001 3.59961ZM12.0001 3.59961C12.5501 3.59961 13.0001 4.04961 13.0001 4.59961C13.0001 5.14961 12.5501 5.59961 12.0001 5.59961C11.4501 5.59961 11.0001 5.14961 11.0001 4.59961C11.0001 4.04961 11.4501 3.59961 12.0001 3.59961ZM6.6301 9.14961L10.0001 4.59961V10.5996C10.0001 11.6996 9.1001 12.5996 8.0001 12.5996C6.9001 12.5996 6.0001 11.6996 6.0001 10.5996C6.0001 10.0296 6.2401 9.51961 6.6301 9.14961ZM2.0001 7.59961C2.5501 7.59961 3.0001 8.04961 3.0001 8.59961C3.0001 9.14961 2.5501 9.59961 2.0001 9.59961C1.4501 9.59961 1.0001 9.14961 1.0001 8.59961C1.0001 8.04961 1.4501 7.59961 2.0001 7.59961ZM14.0001 7.59961C14.5501 7.59961 15.0001 8.04961 15.0001 8.59961C15.0001 9.14961 14.5501 9.59961 14.0001 9.59961C13.4501 9.59961 13.0001 9.14961 13.0001 8.59961C13.0001 8.04961 13.4501 7.59961 14.0001 7.59961ZM9.0001 10.5996C9.0001 10.0496 8.5501 9.59961 8.0001 9.59961C7.4501 9.59961 7.0001 10.0496 7.0001 10.5996C7.0001 11.1496 7.4501 11.5996 8.0001 11.5996C8.5501 11.5996 9.0001 11.1496 9.0001 10.5996Z" fill="white"/>
</svg>
