<svg width="41" height="41" viewBox="0 0 41 41" fill="none" xmlns="http://www.w3.org/2000/svg">
<path d="M20.75 15.4697C28.1138 15.4697 34.0834 13.2312 34.0834 10.4697C34.0834 7.7083 28.1138 5.46973 20.75 5.46973C13.3862 5.46973 7.41669 7.7083 7.41669 10.4697C7.41669 13.2312 13.3862 15.4697 20.75 15.4697Z" stroke="#34449C" stroke-width="3.33333" stroke-linecap="round" stroke-linejoin="round"/>
<path d="M10.8117 20.4697C8.70002 21.3531 7.41669 22.5231 7.41669 23.8031C7.41669 26.5647 13.3867 28.8031 20.75 28.8031C28.1134 28.8031 34.0834 26.5647 34.0834 23.8031C34.0834 22.5231 32.8 21.3531 30.6884 20.4697" stroke="#34449C" stroke-width="3.33333" stroke-linecap="round" stroke-linejoin="round"/>
<path d="M7.41669 10.4697V17.1364C7.41669 19.8981 13.3867 22.1364 20.75 22.1364C28.1134 22.1364 34.0834 19.8981 34.0834 17.1364V10.4697M7.41669 23.8031V30.4697C7.41669 33.2314 13.3867 35.4697 20.75 35.4697C28.1134 35.4697 34.0834 33.2314 34.0834 30.4697V23.8031" stroke="#34449C" stroke-width="3.33333" stroke-linecap="round" stroke-linejoin="round"/>
</svg>
