<svg width="18" height="16" viewBox="0 0 18 16" fill="none" xmlns="http://www.w3.org/2000/svg">
<path d="M14.25 9.58643H17.25V0.586426H14.25M11.25 0.586426H4.5C3.8775 0.586426 3.345 0.961426 3.12 1.50143L0.855 6.78893C0.7875 6.96143 0.75 7.14143 0.75 7.33643V8.83643C0.75 9.23425 0.908035 9.61578 1.18934 9.89709C1.47064 10.1784 1.85218 10.3364 2.25 10.3364H6.9825L6.27 13.7639C6.255 13.8389 6.2475 13.9139 6.2475 13.9964C6.2475 14.3114 6.375 14.5889 6.5775 14.7914L7.3725 15.5864L12.3075 10.6439C12.585 10.3739 12.75 9.99893 12.75 9.58643V2.08643C12.75 1.6886 12.592 1.30707 12.3107 1.02577C12.0294 0.744461 11.6478 0.586426 11.25 0.586426Z" fill="#6D6E76"/>
</svg>
