<svg width="35" height="34" viewBox="0 0 35 34" fill="none" xmlns="http://www.w3.org/2000/svg">
<rect x="0.817627" width="33.8365" height="33.8365" rx="16.9182" fill="#D9D9D9" fill-opacity="0.48"/>
<g clip-path="url(#clip0_309_1355)">
<path d="M10.588 10.1934C9.67733 10.1934 8.93848 10.8896 8.93848 11.7477C8.93848 12.2367 9.18247 12.6965 9.59829 12.9912L17.0761 18.276C17.4679 18.5513 18.004 18.5513 18.3958 18.276L25.8736 12.9912C26.2895 12.6965 26.5334 12.2367 26.5334 11.7477C26.5334 10.8896 25.7946 10.1934 24.8839 10.1934H10.588ZM8.93848 13.8202V20.5558C8.93848 21.6989 9.92476 22.6283 11.1378 22.6283H24.3341C25.5472 22.6283 26.5334 21.6989 26.5334 20.5558V13.8202L19.0556 19.105C18.2721 19.6588 17.1999 19.6588 16.4163 19.105L8.93848 13.8202Z" fill="#494949"/>
</g>
<defs>
<clipPath id="clip0_309_1355">
<rect width="17.595" height="16.5799" fill="white" transform="translate(8.93848 8.12085)"/>
</clipPath>
</defs>
</svg>
