<svg width="14" height="10" viewBox="0 0 14 10" fill="none" xmlns="http://www.w3.org/2000/svg">
<path fill-rule="evenodd" clip-rule="evenodd" d="M0.102693 4.60709C0.729922 3.50052 2.84231 0.435547 6.99802 0.435547C11.1537 0.435547 13.2661 3.50052 13.8933 4.60709C14.0329 4.85325 14.0329 5.1459 13.8933 5.39206C13.2661 6.49863 11.1537 9.5636 6.99802 9.5636C2.84231 9.5636 0.729922 6.49863 0.102693 5.39206C-0.0368351 5.1459 -0.0368353 4.85325 0.102693 4.60709ZM9.5349 4.99994C9.5349 6.4003 8.39969 7.53551 6.99933 7.53551C5.59898 7.53551 4.46376 6.4003 4.46376 4.99994C4.46376 3.59958 5.59898 2.46437 6.99933 2.46437C8.39969 2.46437 9.5349 3.59958 9.5349 4.99994Z" fill="#6D6E76"/>
</svg>
