<svg width="35" height="34" viewBox="0 0 35 34" fill="none" xmlns="http://www.w3.org/2000/svg">
<rect x="0.98114" width="33.8365" height="33.8365" rx="16.9182" fill="#4267B2"/>
<g clip-path="url(#clip0_309_1352)">
<rect width="15.9031" height="17.9333" transform="translate(9.77863 7.95166)" fill="#4267B2"/>
<path d="M23.9779 9.07251H11.4825C11.0306 9.07251 10.5972 9.24964 10.2777 9.56494C9.95814 9.88023 9.77863 10.3079 9.77863 10.7538V23.0829C9.77863 23.5288 9.95814 23.9565 10.2777 24.2717C10.5972 24.587 11.0306 24.7642 11.4825 24.7642H16.3546V19.4294H14.1183V16.9183H16.3546V15.0045C16.3546 12.8277 17.6681 11.6252 19.6798 11.6252C20.6432 11.6252 21.6506 11.7947 21.6506 11.7947V13.9313H20.5406C19.4469 13.9313 19.1057 14.601 19.1057 15.2879V16.9183H21.5473L21.1568 19.4294H19.1057V24.7642H23.9779C24.4298 24.7642 24.8632 24.587 25.1827 24.2717C25.5023 23.9565 25.6818 23.5288 25.6818 23.0829V10.7538C25.6818 10.3079 25.5023 9.88023 25.1827 9.56494C24.8632 9.24964 24.4298 9.07251 23.9779 9.07251Z" fill="white"/>
</g>
<defs>
<clipPath id="clip0_309_1352">
<rect width="15.9031" height="17.9333" fill="white" transform="translate(9.77863 7.95166)"/>
</clipPath>
</defs>
</svg>
