<svg width="32" height="33" viewBox="0 0 32 33" fill="none" xmlns="http://www.w3.org/2000/svg">
<g clip-path="url(#clip0_651_758)">
<path d="M31.8571 16.5321C31.8571 7.73498 24.7257 0.603516 15.9286 0.603516C7.13146 0.603516 0 7.73498 0 16.5321C0 24.4824 5.82482 31.0722 13.4397 32.2672V21.1364H9.39537V16.5321H13.4397V13.0228C13.4397 9.03073 15.8178 6.82562 19.4562 6.82562C21.1984 6.82562 23.0218 7.13672 23.0218 7.13672V11.0566H21.0133C19.0346 11.0566 18.4174 12.2846 18.4174 13.5455V16.5321H22.8351L22.1289 21.1364H18.4174V32.2672C26.0323 31.0722 31.8571 24.4824 31.8571 16.5321Z" fill="#F28520"/>
</g>
<defs>
<clipPath id="clip0_651_758">
<rect width="31.8571" height="31.8571" fill="white" transform="translate(0 0.603516)"/>
</clipPath>
</defs>
</svg>
