<svg width="16" height="15" viewBox="0 0 16 15" fill="none" xmlns="http://www.w3.org/2000/svg">
<path d="M2.375 7.5L3.625 6.25M3.625 6.25L8 1.875L12.375 6.25M3.625 6.25V12.5C3.625 12.8452 3.90482 13.125 4.25 13.125H6.125M12.375 6.25L13.625 7.5M12.375 6.25V12.5C12.375 12.8452 12.0952 13.125 11.75 13.125H9.875M6.125 13.125C6.47018 13.125 6.75 12.8452 6.75 12.5V10C6.75 9.65482 7.02982 9.375 7.375 9.375H8.625C8.97018 9.375 9.25 9.65482 9.25 10V12.5C9.25 12.8452 9.52982 13.125 9.875 13.125M6.125 13.125H9.875" stroke="#6D6E76" stroke-width="1.125" stroke-linecap="round" stroke-linejoin="round"/>
</svg>
