<svg width="33" height="33" viewBox="0 0 33 33" fill="none" xmlns="http://www.w3.org/2000/svg">
<g clip-path="url(#clip0_651_762)">
<path d="M16.3573 3.4719C20.6132 3.4719 21.1172 3.49057 22.7909 3.56523C24.3465 3.63368 25.1864 3.89501 25.7464 4.11278C26.4869 4.399 27.022 4.74743 27.5757 5.3012C28.1357 5.86119 28.4779 6.39007 28.7641 7.1305C28.9819 7.69049 29.2433 8.53669 29.3117 10.086C29.3864 11.766 29.405 12.2699 29.405 16.5196C29.405 20.7756 29.3864 21.2795 29.3117 22.9533C29.2433 24.5088 28.9819 25.3488 28.7641 25.9088C28.4779 26.6492 28.1295 27.1843 27.5757 27.7381C27.0157 28.2981 26.4869 28.6403 25.7464 28.9265C25.1864 29.1443 24.3402 29.4056 22.7909 29.4741C21.111 29.5487 20.607 29.5674 16.3573 29.5674C12.1014 29.5674 11.5974 29.5487 9.92363 29.4741C8.36811 29.4056 7.52813 29.1443 6.96814 28.9265C6.22771 28.6403 5.69261 28.2919 5.13884 27.7381C4.57885 27.1781 4.23664 26.6492 3.95042 25.9088C3.73265 25.3488 3.47132 24.5026 3.40287 22.9533C3.32821 21.2733 3.30954 20.7693 3.30954 16.5196C3.30954 12.2637 3.32821 11.7597 3.40287 10.086C3.47132 8.53047 3.73265 7.69049 3.95042 7.1305C4.23664 6.39007 4.58507 5.85497 5.13884 5.3012C5.69883 4.74121 6.22771 4.399 6.96814 4.11278C7.52813 3.89501 8.37433 3.63368 9.92363 3.56523C11.5974 3.49057 12.1014 3.4719 16.3573 3.4719ZM16.3573 0.603516C12.0329 0.603516 11.4916 0.622182 9.79297 0.696847C8.10056 0.771512 6.93703 1.04528 5.92905 1.43728C4.87751 1.84794 3.98775 2.38926 3.10421 3.27902C2.21445 4.16256 1.67313 5.05232 1.26247 6.09763C0.87048 7.11183 0.596708 8.26914 0.522042 9.96155C0.447377 11.6664 0.428711 12.2077 0.428711 16.5321C0.428711 20.8564 0.447377 21.3978 0.522042 23.0964C0.596708 24.7888 0.87048 25.9523 1.26247 26.9603C1.67313 28.0119 2.21445 28.9016 3.10421 29.7852C3.98775 30.6687 4.87751 31.2162 5.92282 31.6207C6.93703 32.0127 8.09434 32.2864 9.78675 32.3611C11.4854 32.4358 12.0267 32.4544 16.3511 32.4544C20.6754 32.4544 21.2167 32.4358 22.9154 32.3611C24.6078 32.2864 25.7713 32.0127 26.7793 31.6207C27.8246 31.2162 28.7144 30.6687 29.5979 29.7852C30.4814 28.9016 31.029 28.0119 31.4334 26.9665C31.8254 25.9523 32.0992 24.795 32.1739 23.1026C32.2485 21.404 32.2672 20.8627 32.2672 16.5383C32.2672 12.214 32.2485 11.6726 32.1739 9.974C32.0992 8.28158 31.8254 7.11805 31.4334 6.11007C31.0414 5.05232 30.5001 4.16256 29.6104 3.27902C28.7268 2.39548 27.8371 1.84794 26.7917 1.4435C25.7775 1.05151 24.6202 0.777734 22.9278 0.703069C21.223 0.622182 20.6816 0.603516 16.3573 0.603516Z" fill="#F28520"/>
<path d="M16.3574 8.34998C11.8401 8.34998 8.17529 12.0148 8.17529 16.532C8.17529 21.0493 11.8401 24.7141 16.3574 24.7141C20.8746 24.7141 24.5394 21.0493 24.5394 16.532C24.5394 12.0148 20.8746 8.34998 16.3574 8.34998ZM16.3574 21.8395C13.4267 21.8395 11.0499 19.4626 11.0499 16.532C11.0499 13.6014 13.4267 11.2246 16.3574 11.2246C19.288 11.2246 21.6648 13.6014 21.6648 16.532C21.6648 19.4626 19.288 21.8395 16.3574 21.8395Z" fill="#F28520"/>
<path d="M26.773 8.02701C26.773 9.08477 25.9144 9.93719 24.8628 9.93719C23.8051 9.93719 22.9526 9.07854 22.9526 8.02701C22.9526 6.96925 23.8113 6.11682 24.8628 6.11682C25.9144 6.11682 26.773 6.97547 26.773 8.02701Z" fill="#F28520"/>
</g>
<defs>
<clipPath id="clip0_651_762">
<rect width="31.8571" height="31.8571" fill="white" transform="translate(0.428711 0.603516)"/>
</clipPath>
</defs>
</svg>
