<svg width="35" height="34" viewBox="0 0 35 34" fill="none" xmlns="http://www.w3.org/2000/svg">
<rect x="0.490601" width="33.8365" height="33.8365" rx="16.9182" fill="#0072B1"/>
<g clip-path="url(#clip0_309_1364)">
<rect width="16.9182" height="16.9182" transform="translate(8.94971 8.45923)" fill="#0072B1"/>
<path d="M24.6595 9.5166H10.1544C9.48973 9.5166 8.94971 9.99573 8.94971 10.5839V23.2528C8.94971 23.8409 9.48973 24.3201 10.1544 24.3201H24.6595C25.3241 24.3201 25.8679 23.8409 25.8679 23.2528V10.5839C25.8679 9.99573 25.3241 9.5166 24.6595 9.5166ZM14.0629 22.2053H11.5554V15.1406H14.0667V22.2053H14.0629ZM12.8092 14.1757C12.0048 14.1757 11.3553 13.6041 11.3553 12.9036C11.3553 12.203 12.0048 11.6314 12.8092 11.6314C13.6098 11.6314 14.2631 12.203 14.2631 12.9036C14.2631 13.6074 13.6136 14.1757 12.8092 14.1757ZM23.4624 22.2053H20.9549V18.7688C20.9549 17.9493 20.936 16.8952 19.652 16.8952C18.3454 16.8952 18.1452 17.7874 18.1452 18.7093V22.2053H15.6377V15.1406H18.0433V16.1055H18.0772C18.4133 15.5503 19.2328 14.9655 20.4526 14.9655C22.9903 14.9655 23.4624 16.4293 23.4624 18.3326V22.2053Z" fill="white"/>
</g>
<defs>
<clipPath id="clip0_309_1364">
<rect width="16.9182" height="16.9182" fill="white" transform="translate(8.94971 8.45923)"/>
</clipPath>
</defs>
</svg>
