<svg width="32" height="33" viewBox="0 0 32 33" fill="none" xmlns="http://www.w3.org/2000/svg">
<g clip-path="url(#clip0_651_767)">
<path d="M29.642 0.603516H2.49502C1.1946 0.603516 0.143066 1.63016 0.143066 2.89947V30.1585C0.143066 31.4278 1.1946 32.4607 2.49502 32.4607H29.642C30.9425 32.4607 32.0002 31.4278 32.0002 30.1647V2.89947C32.0002 1.63016 30.9425 0.603516 29.642 0.603516ZM9.59443 27.7505H4.86564V12.5437H9.59443V27.7505ZM7.23004 10.4718C5.71184 10.4718 4.48609 9.24601 4.48609 7.73404C4.48609 6.22207 5.71184 4.99632 7.23004 4.99632C8.74201 4.99632 9.96776 6.22207 9.96776 7.73404C9.96776 9.23979 8.74201 10.4718 7.23004 10.4718ZM27.2901 27.7505H22.5675V20.3587C22.5675 18.5978 22.5364 16.3268 20.1098 16.3268C17.6521 16.3268 17.2787 18.2494 17.2787 20.2342V27.7505H12.5624V12.5437H17.0921V14.6219H17.1543C17.7827 13.4273 19.3258 12.1642 21.6218 12.1642C26.4065 12.1642 27.2901 15.3126 27.2901 19.4067V27.7505V27.7505Z" fill="#F28520"/>
</g>
<defs>
<clipPath id="clip0_651_767">
<rect width="31.8571" height="31.8571" fill="white" transform="translate(0.143066 0.603516)"/>
</clipPath>
</defs>
</svg>
