<svg width="48" height="48" viewBox="0 0 48 48" fill="none" xmlns="http://www.w3.org/2000/svg">
<g clip-path="url(#clip0_1765_7852)">
<path d="M44.9966 13.411C44.9966 13.4448 44.9966 13.4871 44.9878 13.5125C44.9437 13.8421 44.9437 14.1718 44.9701 14.51C44.9878 14.5945 45.0054 14.679 45.0759 14.7467C45.1904 14.8735 45.3665 14.8481 45.437 14.6959C45.4722 14.6199 45.4722 14.5438 45.4546 14.4677C45.3665 14.1465 45.3489 13.8083 45.3401 13.4786C45.3401 13.4617 45.3401 13.4364 45.3401 13.411C45.437 13.4026 45.5251 13.3941 45.6043 13.3941C45.666 13.3857 45.7188 13.3772 45.7629 13.3518C45.8949 13.2842 45.895 13.1405 45.754 13.0729C45.7012 13.0475 45.6307 13.0391 45.5691 13.0391C45.3489 13.0475 45.1287 13.0475 44.9085 13.0475C44.8293 13.0475 44.75 13.056 44.6707 13.0644C44.6266 13.0729 44.5738 13.0729 44.5386 13.0982C44.4769 13.1236 44.4417 13.1659 44.4417 13.225C44.4505 13.2842 44.4769 13.318 44.5386 13.3434C44.5738 13.3688 44.6178 13.3772 44.6619 13.3772C44.7676 13.3857 44.8821 13.4026 44.9966 13.411ZM47.4187 13.7999C47.4187 13.8083 47.4275 13.8168 47.4275 13.8168C47.4627 14.045 47.498 14.2648 47.5244 14.4846C47.5332 14.5607 47.542 14.6283 47.5949 14.6875C47.7094 14.8312 47.8855 14.8143 47.9648 14.6621C48 14.586 48.0088 14.51 47.9912 14.4254C47.9384 14.1718 47.9119 13.9182 47.8591 13.6731C47.8238 13.5209 47.7799 13.3772 47.7358 13.242C47.7094 13.1574 47.6477 13.0982 47.542 13.0898C47.4364 13.0729 47.3571 13.1236 47.313 13.1997C47.2602 13.2673 47.2161 13.3349 47.1809 13.411C47.1192 13.5463 47.0664 13.6815 46.996 13.8083C46.9871 13.8421 46.9783 13.8675 46.9607 13.8929C46.9519 13.876 46.9431 13.8675 46.9431 13.8675C46.8286 13.6562 46.7229 13.4448 46.6084 13.242C46.5908 13.225 46.582 13.2081 46.5732 13.1912C46.5203 13.1151 46.4587 13.0729 46.3618 13.0729C46.2737 13.0813 46.2032 13.1321 46.1592 13.2081C46.1416 13.242 46.1416 13.2673 46.1328 13.3011C46.0975 13.5716 46.0535 13.8421 46.0183 14.1127C46.0006 14.2648 45.9918 14.417 45.9918 14.5691C45.983 14.603 45.9918 14.6452 46.0094 14.679C46.0271 14.7467 46.0799 14.7889 46.1504 14.7974C46.2385 14.8058 46.3001 14.7805 46.3265 14.7128C46.3529 14.6621 46.3618 14.6199 46.3706 14.5776C46.4058 14.4254 46.4322 14.2817 46.4587 14.138C46.4763 14.0535 46.4851 13.9859 46.5115 13.8929C46.5291 13.9267 46.5467 13.952 46.5644 13.9774C46.6436 14.0788 46.7229 14.1803 46.8198 14.2648C46.9167 14.3324 46.996 14.324 47.0752 14.2479C47.0928 14.231 47.1016 14.2226 47.1192 14.2056C47.1985 14.0873 47.2954 13.9689 47.3746 13.8506C47.3923 13.8337 47.4011 13.8168 47.4187 13.7999Z" fill="#3A3B7B"/>
<path d="M27.1244 13.5778C27.0632 13.7385 27.0515 13.8542 27.0798 13.9504C27.111 14.0813 27.192 14.1241 27.302 14.0908C28.3366 13.8453 30.6051 14.5422 31.445 14.7364C31.6431 14.7772 31.8042 14.5318 31.6691 14.3118C31.4718 14.0987 29.2043 13.1864 28.3391 13.1367C27.9999 13.1183 27.3936 13.0348 27.1244 13.5778Z" fill="#3A3B7B"/>
<path d="M35.9904 10.6241C36.1006 10.6852 36.1622 10.7435 36.1927 10.8085C36.238 10.8939 36.2141 10.953 36.1379 10.9832C35.4541 11.3035 34.5441 12.6826 34.1768 13.1582C34.0877 13.2676 33.8823 13.2041 33.8513 13.0241C33.8577 12.8207 34.6643 11.3241 35.1145 10.9164C35.2915 10.7573 35.5837 10.445 35.9904 10.6241Z" fill="#3A3B7B"/>
<path d="M30.5444 9.94541C30.6769 9.84959 30.8145 9.81602 30.8848 9.87828C31.9166 10.7252 32.4637 12.0663 32.8025 13.2941C32.8153 13.3227 32.8161 13.3638 32.8059 13.4066C32.8017 13.4432 32.7738 13.4818 32.7296 13.5118C32.6823 13.5448 32.6416 13.5548 32.6225 13.5264C32.1703 12.936 29.5875 10.6392 30.5444 9.94541Z" fill="#3A3B7B"/>
<path d="M8.69524 24.6285C8.94253 24.4518 9.21137 24.3047 9.49586 24.1905C9.7935 24.1089 10.1107 24.1224 10.3997 24.2291C10.6885 24.3359 10.9334 24.53 11.0971 24.7822C11.2435 25.0337 11.3008 25.3241 11.2604 25.6096C11.2199 25.8951 11.084 26.1602 10.8729 26.3651C10.7093 26.5312 10.5235 26.6759 10.3205 26.7954C9.41582 27.3564 8.50308 27.8866 7.59039 28.4475C7.40363 28.5879 7.20551 28.7139 6.99793 28.8241C6.68217 28.9752 6.32132 29.0157 5.97776 28.9385C5.6342 28.8614 5.32955 28.6713 5.11648 28.4014C4.95719 28.2103 4.82277 28.0013 4.71616 27.779C3.8515 26.0347 2.95481 24.2981 2.12217 22.523C1.73787 21.7546 1.42563 20.8709 1.12139 20.018C0.989767 19.7702 0.964063 19.4829 1.04976 19.2171C1.13545 18.9514 1.32577 18.7282 1.58025 18.5951C1.83473 18.462 2.13327 18.4294 2.4124 18.5043C2.69152 18.5791 2.92921 18.7556 3.0749 18.996C3.52271 19.5672 3.91911 20.1739 4.25981 20.8095C5.12448 22.3463 5.94912 23.8831 6.78176 25.3738C6.83024 25.4562 6.8837 25.5357 6.94188 25.612C7.56859 25.3591 8.15803 25.0285 8.69524 24.6285Z" fill="#3A3B7B"/>
<path d="M17.6354 24.0924C15.6579 26.313 12.3433 25.7521 10.678 22.8936C9.49308 20.865 9.28493 17.5147 11.8629 15.4016C12.4135 14.9592 13.0717 14.6578 13.7764 14.5256C14.6404 14.4067 15.5214 14.553 16.2936 14.9435C17.0657 15.3341 17.6895 15.9489 18.0757 16.7002C19.4848 19.1591 19.2847 22.2942 17.6354 24.0924ZM16.8347 18.9132C16.6247 18.309 16.2032 17.7931 15.6418 17.4532C15.3242 17.2359 14.9382 17.1302 14.5489 17.154C14.1595 17.1778 13.7906 17.3296 13.5042 17.5838C12.3593 18.5597 12.1191 20.8727 12.9517 22.2481C13.0579 22.4724 13.2137 22.6717 13.4085 22.8322C13.6033 22.9926 13.8323 23.1102 14.0793 23.1768C14.3264 23.2434 14.5857 23.2574 14.839 23.2178C15.0923 23.1781 15.3335 23.0859 15.5458 22.9474C16.1664 22.4856 16.6217 21.8497 16.8484 21.1281C17.0751 20.4065 17.062 19.635 16.8108 18.9209L16.8347 18.9132Z" fill="#3A3B7B"/>
<path d="M25.7055 19.8815C25.5031 19.9233 25.294 19.9258 25.0904 19.8888C24.887 19.8518 24.6932 19.7762 24.5207 19.6663C24.3697 19.5834 24.2397 19.4695 24.14 19.3326C24.0405 19.1957 23.9737 19.0394 23.9446 18.8747C23.9155 18.7101 23.9248 18.5414 23.9718 18.3807C24.0188 18.2199 24.1024 18.0712 24.2164 17.9451C24.4152 17.6917 24.6973 17.5103 25.0171 17.4303C25.8518 17.1977 26.7112 17.056 27.579 17.0076C27.7697 16.9864 27.9629 17.0018 28.1472 17.0532C28.3316 17.1046 28.5033 17.1907 28.6525 17.3067C28.8016 17.4227 28.9252 17.5661 29.0158 17.7285C29.1064 17.8909 29.1623 18.069 29.1802 18.2525C29.4304 19.1534 29.4578 20.0981 29.2603 21.0111C28.5398 23.9618 26.0578 24.9761 23.2717 24.0309C22.4896 23.7782 21.8039 23.3074 21.3022 22.6785C20.633 21.9212 20.1586 21.0237 19.9171 20.0582C19.7214 19.1985 19.7428 18.3063 19.9797 17.4562C20.2164 16.606 20.6616 15.8225 21.2781 15.1711C21.8632 14.4631 22.6226 13.906 23.4879 13.5498C24.0346 13.2605 24.6744 13.1783 25.2813 13.3192C25.4189 13.3558 25.5439 13.4271 25.6432 13.5256C25.7425 13.6241 25.8125 13.7464 25.846 13.8797C25.8795 14.0129 25.8752 14.1524 25.8336 14.2835C25.792 14.4147 25.7147 14.5328 25.6095 14.6255C25.4096 14.7992 25.1924 14.9537 24.961 15.0866C24.2492 15.5216 23.6298 16.0822 23.1356 16.7387C22.8116 17.1635 22.5885 17.6512 22.482 18.1676C22.3755 18.684 22.3881 19.2166 22.5191 19.7278C22.7007 20.4249 23.1036 21.0506 23.672 21.5182C25.4333 23.0551 27.7231 21.572 27.3228 19.4742C26.7384 19.6126 26.226 19.7586 25.7055 19.8815Z" fill="#3A3B7B"/>
<path d="M36.466 24.2151C33.864 25.7519 30.9017 24.2151 30.2532 20.9878C29.7809 18.6825 30.6776 15.4552 33.816 14.2257C34.4838 13.9698 35.208 13.8799 35.9216 13.9645C36.779 14.1151 37.5655 14.5202 38.1702 15.1226C38.7748 15.7251 39.1674 16.4945 39.2922 17.3224C39.8206 20.0656 38.6197 22.9933 36.466 24.2151ZM37.3708 19.0437C37.37 18.4053 37.1347 17.7876 36.7062 17.2994C36.4772 16.9974 36.1461 16.781 35.7695 16.6871C35.3927 16.5932 34.9938 16.6276 34.6406 16.7846C33.2315 17.3685 32.2388 19.4893 32.5991 21.0493C32.6266 21.2941 32.7094 21.5301 32.8419 21.741C32.9744 21.9518 33.1532 22.1324 33.366 22.27C33.5787 22.4075 33.8202 22.4989 34.0736 22.5376C34.327 22.5762 34.5861 22.5613 34.8328 22.4939C35.5776 22.2441 36.2225 21.7774 36.6774 21.1589C37.1325 20.5403 37.3749 19.8008 37.3708 19.0437Z" fill="#3A3B7B"/>
<path d="M41.9235 24.8609C41.8842 25.1421 41.7302 25.3969 41.4952 25.5691C41.2602 25.7413 40.9635 25.8169 40.6705 25.7792C40.3775 25.7415 40.1121 25.5936 39.9327 25.368C39.7532 25.1425 39.6745 24.8578 39.7138 24.5766C39.7531 24.2953 39.9072 24.0406 40.1421 23.8684C40.3771 23.6962 40.6737 23.6206 40.9668 23.6583C41.2598 23.696 41.5252 23.8439 41.7047 24.0694C41.8841 24.295 41.9628 24.5797 41.9235 24.8609ZM41.2269 14.495C41.3792 14.2718 41.6026 14.1018 41.8638 14.0104C42.1249 13.919 42.4099 13.9111 42.6761 13.9878C42.9467 14.0528 43.1858 14.2051 43.3535 14.4191C43.5211 14.6331 43.607 14.8959 43.5968 15.1635C43.5615 15.5927 43.4946 16.0189 43.3967 16.4391C43.1325 17.8606 42.8762 19.2822 42.596 20.6884C42.4679 21.2494 42.2998 21.7872 42.1156 22.3558C42.0516 22.5336 41.9446 22.6942 41.8034 22.8246C41.7157 22.9227 41.6036 22.9979 41.4775 23.0433C41.3514 23.0888 41.2155 23.1029 41.0822 23.0845C40.9489 23.0661 40.8225 23.0158 40.7149 22.9381C40.6073 22.8604 40.5218 22.758 40.4664 22.6402C40.3712 22.4289 40.3195 22.2018 40.3143 21.9717C40.3143 21.0188 40.3143 20.0583 40.3783 19.0978C40.4872 17.727 40.7012 16.3657 41.0188 15.0252C41.0562 14.8456 41.1266 14.6738 41.2269 14.518V14.495Z" fill="#3A3B7B"/>
<path fill-rule="evenodd" clip-rule="evenodd" d="M5.31263 31.0356C5.2181 31.2382 5.19218 31.464 5.23837 31.6813C5.2691 31.9677 5.3366 32.2495 5.43933 32.5201C5.56759 32.8515 5.71111 33.1792 5.88807 33.5831C5.92876 33.676 5.97129 33.773 6.01579 33.8751C6.25443 34.4223 6.55386 35.1216 6.95326 36.1336C7.06631 36.4211 7.1667 36.711 7.26779 37.0028C7.30862 37.1207 7.34961 37.2391 7.39156 37.3576C7.54193 37.7792 7.80067 38.1579 8.14364 38.458C8.28927 38.623 8.48244 38.7432 8.69904 38.8033C8.91988 38.8646 9.15474 38.8607 9.37323 38.7922C9.59171 38.7236 9.7836 38.5935 9.924 38.4188C10.0616 38.2475 10.1435 38.041 10.1594 37.8254C10.2487 37.4053 10.2182 36.9697 10.071 36.5647C9.83745 35.8922 9.57136 35.2187 9.26452 34.56L9.26311 34.5571C8.75833 33.5266 8.24523 32.5032 7.70784 31.4793L7.70382 31.4721C7.5465 31.2054 7.34206 30.9669 7.09967 30.7675C6.94232 30.5895 6.72526 30.4694 6.48556 30.428C6.24076 30.3858 5.98827 30.4283 5.77319 30.5482C5.56972 30.6597 5.40843 30.8304 5.31263 31.0356Z" fill="#3A3B7B"/>
<path fill-rule="evenodd" clip-rule="evenodd" d="M13.0224 28.4985C12.2309 28.3018 11.4043 28.2731 10.6002 28.4145C9.97743 28.4734 9.36488 28.6113 8.93953 28.8844C8.7232 29.0234 8.54829 29.2019 8.451 29.4287C8.35318 29.6568 8.34069 29.9177 8.42086 30.2084C8.56723 30.7408 8.75731 31.2584 8.94672 31.7744L8.9774 31.858L8.97814 31.8599C9.54845 33.3589 10.1242 34.8529 10.7052 36.3417C10.7729 36.5763 10.8687 36.8026 10.9907 37.0161L10.993 37.0201C11.154 37.2853 11.3606 37.5225 11.604 37.7217C11.7258 37.8313 11.8763 37.9071 12.0395 37.941C12.2044 37.9751 12.3758 37.9652 12.5351 37.9122C12.6945 37.8593 12.8356 37.7654 12.9432 37.6407C13.049 37.518 13.1183 37.3702 13.1438 37.213C13.2488 36.7858 13.2151 36.3379 13.0473 35.9295C12.9949 35.7921 12.9538 35.6517 12.9105 35.5038C12.8961 35.4545 12.8814 35.4044 12.866 35.3533C14.1959 34.8544 15.6109 34.1835 16.1085 32.6228C16.3034 32.0834 16.3196 31.4994 16.155 30.9508C15.9902 30.4015 15.6521 29.9147 15.1874 29.5574C14.5548 29.0571 13.8159 28.6957 13.0224 28.4985ZM10.8285 30.4128C10.8547 30.4056 10.8811 30.3988 10.9076 30.3926C11.7734 30.262 12.6592 30.436 13.4019 30.8826C13.7292 31.1011 13.8633 31.3439 13.8864 31.5774C13.9101 31.8179 13.819 32.0785 13.636 32.3291C13.2901 32.8023 12.659 33.1811 12.0889 33.2517C11.6733 32.333 11.2512 31.3772 10.8285 30.4128Z" fill="#3A3B7B"/>
<path d="M18.2991 26.8168C19.2417 26.399 20.4092 26.3268 21.3228 26.6206C21.5529 26.6849 21.7525 26.824 21.8876 27.0142C22.0217 27.2032 22.0836 27.4309 22.0629 27.6585C22.0616 27.8063 22.0238 27.9517 21.9527 28.0828C21.8803 28.2164 21.7755 28.3312 21.6471 28.4177C21.5187 28.5041 21.3706 28.5596 21.2151 28.5795C21.0596 28.5994 20.9015 28.583 20.754 28.5318L20.7428 28.5279L20.7322 28.5226C20.6568 28.4847 20.5766 28.4562 20.4937 28.4376L20.4884 28.4364C19.8457 28.2726 19.2395 28.5441 19.0181 28.8776C18.9125 29.0367 18.8994 29.1972 18.9873 29.3433C19.0815 29.4997 19.3126 29.6752 19.7801 29.8003C19.9087 29.8342 20.0405 29.8669 20.1741 29.9001C20.5438 29.992 20.928 30.0874 21.2995 30.2197L21.3009 30.2202C23.0148 30.8461 23.653 32.1423 23.4345 33.3615C23.2184 34.5672 22.1693 35.6644 20.5916 35.9233C20.0176 36.0454 19.4201 36.0216 18.8585 35.8542C18.2954 35.6864 17.7879 35.3801 17.3863 34.9657L17.3758 34.9549C17.2491 34.7987 17.1638 34.6153 17.126 34.4207C17.0912 34.245 17.1095 34.0635 17.1787 33.8975C17.2474 33.7324 17.3637 33.5896 17.5138 33.4855C17.6723 33.3676 17.8634 33.2968 18.0634 33.282C18.2628 33.2673 18.4623 33.3089 18.6373 33.4016C18.8121 33.4826 18.9748 33.5861 19.1207 33.709L19.1235 33.7113C19.3817 33.9379 19.6941 33.997 19.9937 33.9423C20.2977 33.8868 20.5835 33.7142 20.7673 33.4851C20.95 33.2576 21.0233 32.9872 20.9363 32.7248C20.8487 32.4604 20.5854 32.1642 20.007 31.9166C19.8558 31.855 19.699 31.8053 19.5359 31.7569C19.492 31.7438 19.4472 31.7308 19.402 31.7177C19.2814 31.6825 19.1573 31.6463 19.0357 31.6065C18.9519 31.5791 18.8687 31.5531 18.7864 31.5273C18.5614 31.457 18.3421 31.3884 18.131 31.2965C17.6715 31.1464 17.2746 30.8581 16.9992 30.4743C16.7227 30.089 16.5836 29.6282 16.6025 29.1608C16.604 28.0217 17.3515 27.2369 18.2991 26.8168Z" fill="#3A3B7B"/>
<path d="M30.2487 26.6955C30.0659 26.6098 29.8638 26.5692 29.6607 26.5772C29.4574 26.5852 29.2595 26.6416 29.0847 26.7415C28.911 26.8406 28.7656 26.9794 28.6614 27.1456C28.5658 27.2855 28.4997 27.4419 28.4667 27.6063C28.4338 27.7704 28.4346 27.9392 28.469 28.103C28.503 28.3135 28.5408 28.5182 28.578 28.7201C28.6397 29.0541 28.6998 29.3807 28.7394 29.7137L28.7409 29.7221C28.831 30.2443 28.8782 30.7725 28.8825 31.3017L28.8829 31.3092C28.9137 31.8808 28.7108 32.4412 28.3177 32.8716L28.3114 32.8792C28.1835 33.0366 28.0125 33.1567 27.8174 33.2261C27.6225 33.2955 27.4112 33.3114 27.2073 33.2721C27.0034 33.2329 26.8149 33.1399 26.6629 33.0037C26.5109 32.8675 26.4013 32.6928 26.3465 32.5003C26.2297 32.0945 26.1621 31.6771 26.1449 31.2564L26.3445 28.2073C26.3474 28.1675 26.3508 28.1266 26.3542 28.0854C26.3618 27.9927 26.3696 27.8984 26.3728 27.8104C26.3775 27.681 26.3735 27.5479 26.3421 27.4218C26.3099 27.2931 26.2487 27.1705 26.1402 27.0662C26.0328 26.9629 25.8878 26.8867 25.7053 26.8349C25.3753 26.7432 25.0962 26.7461 24.8637 26.8408C24.631 26.9355 24.4717 27.1113 24.3589 27.3145C24.2469 27.5159 24.175 27.7544 24.1206 27.9932C24.0803 28.1704 24.0478 28.3565 24.017 28.5336C24.0064 28.5946 23.9959 28.6545 23.9854 28.7127L23.9851 28.7145C23.8202 29.6857 23.7712 30.6718 23.8388 31.6537C23.8515 32.1844 23.9667 32.7081 24.1789 33.1983C24.4183 33.8308 24.8518 34.3787 25.4223 34.7699C25.9941 35.1619 26.6763 35.3779 27.3787 35.3893C28.0812 35.4007 28.7707 35.207 29.3559 34.8338C29.9402 34.4613 30.393 33.9273 30.6544 33.3025C31.0202 32.5067 31.1919 31.6411 31.1565 30.7719C31.135 30.1374 31.099 29.4979 31.0632 28.8617C31.0456 28.5496 31.0281 28.2382 31.0124 27.9287C31.0045 27.6183 30.8978 27.3177 30.7067 27.0672C30.5885 26.9088 30.4311 26.7811 30.2487 26.6955Z" fill="#3A3B7B"/>
<path d="M36.7174 31.4767C36.6988 31.4994 36.6793 31.5228 36.6589 31.5471C36.5102 30.724 36.3725 29.9012 36.2345 29.0771C36.185 28.7815 36.1352 28.4845 36.0852 28.1885L36.0796 28.1555L36.0613 28.1269C36.0269 28.0732 36.0234 28.0205 36.0234 27.9082V27.8952L36.0214 27.8824C35.984 27.6505 35.8747 27.4346 35.7077 27.2631C35.5412 27.0921 35.325 26.973 35.0871 26.9214C34.8496 26.8652 34.6 26.8775 34.3698 26.957C34.1402 27.0363 33.94 27.1788 33.7943 27.3667C33.6732 27.5108 33.5739 27.6707 33.4995 27.8415C33.3306 28.2096 33.1603 28.5785 32.9895 28.9485L32.9865 28.9549C32.5601 29.8785 32.1308 30.8082 31.7139 31.7453L31.7127 31.7484C31.4568 32.356 31.2456 32.9962 31.0351 33.6345C30.993 33.7619 30.951 33.8892 30.9086 34.0162C30.8326 34.2176 30.7994 34.4316 30.8108 34.6455C30.797 34.8369 30.8447 35.0279 30.9477 35.1926C31.0527 35.3607 31.21 35.4929 31.3974 35.5708C31.596 35.6543 31.8181 35.6721 32.0284 35.6212C32.2383 35.5704 32.4247 35.4541 32.5583 35.2906C32.7288 35.0893 32.8755 34.8697 32.9952 34.637C33.3483 33.9438 33.6857 33.2421 34.0216 32.5435C34.1516 32.2733 34.2779 32.0312 34.4216 31.7677C34.4315 31.8002 34.4416 31.8319 34.452 31.8636C34.6026 32.5 34.8568 33.1095 35.2052 33.6699C35.2711 33.7886 35.363 33.8923 35.4744 33.974C35.5872 34.0566 35.7174 34.1146 35.8559 34.1441C35.9944 34.1735 36.138 34.1737 36.2766 34.1445C36.415 34.1154 36.5455 34.0573 36.6584 33.975L36.8818 33.8145L38.6156 32.4129L38.5131 33.04C38.3724 33.902 38.2327 34.7568 38.0843 35.6119C37.9872 35.9909 37.9874 36.3867 38.0847 36.7656C38.1269 36.9788 38.2343 37.175 38.3933 37.3294C38.5537 37.485 38.759 37.5907 38.9827 37.6329C39.2064 37.675 39.4382 37.6517 39.6479 37.5658C39.8545 37.4813 40.0303 37.3398 40.1532 37.1596C40.4391 36.8191 40.617 36.407 40.6659 35.9722C40.7395 35.3582 40.8226 34.7358 40.9058 34.1136C41.0016 33.3965 41.0974 32.6795 41.1783 31.9763L41.1786 31.9742C41.2565 31.2044 41.2942 30.4315 41.2915 29.6581C41.3086 29.4137 41.2452 29.1703 41.1101 28.9622C40.9746 28.7534 40.7738 28.591 40.5365 28.4982C40.2897 28.3905 40.0134 28.3617 39.7483 28.4161C39.4849 28.4702 39.2464 28.6034 39.0676 28.7965C38.7478 29.0804 38.4478 29.3841 38.1695 29.7058L38.1676 29.708C37.8638 30.0714 37.562 30.4418 37.2622 30.8099C37.0799 31.0337 36.8982 31.2569 36.7174 31.4767Z" fill="#3A3B7B"/>
</g>
<defs>
<clipPath id="clip0_1765_7852">
<rect width="47" height="29" fill="white" transform="translate(1 9.84668)"/>
</clipPath>
</defs>
</svg>
