<svg width="41" height="41" viewBox="0 0 41 41" fill="none" xmlns="http://www.w3.org/2000/svg">
<g clip-path="url(#clip0_1768_7939)">
<path d="M26.2143 1.89844V19.0413L36.4714 32.0984C36.971 32.7307 37.2823 33.491 37.3694 34.2922C37.4566 35.0933 37.3161 35.9028 36.9641 36.6277C36.612 37.3526 36.0628 37.9635 35.3793 38.3905C34.6958 38.8174 33.9058 39.043 33.1 39.0413H7.89998C7.09413 39.043 6.30413 38.8174 5.62066 38.3905C4.93718 37.9635 4.38792 37.3526 4.03591 36.6277C3.6839 35.9028 3.5434 35.0933 3.63054 34.2922C3.71768 33.491 4.02892 32.7307 4.52855 32.0984L14.7857 19.0413V1.89844M10.5 1.89844H30.5" stroke="#34449C" stroke-width="2.85714" stroke-linecap="round" stroke-linejoin="round"/>
</g>
<defs>
<clipPath id="clip0_1768_7939">
<rect width="40" height="40" fill="white" transform="translate(0.5 0.469727)"/>
</clipPath>
</defs>
</svg>
