<svg width="7" height="11" viewBox="0 0 7 11" fill="none" xmlns="http://www.w3.org/2000/svg">
<path d="M2.45387 5.49966L6.52694 9.57276C6.66541 9.71121 6.73624 9.88525 6.73944 10.0949C6.74266 10.3045 6.67183 10.4817 6.52694 10.6266C6.38208 10.7714 6.20644 10.8439 6.00004 10.8439C5.79364 10.8439 5.61801 10.7714 5.47314 10.6266L0.978919 6.13234C0.885319 6.03875 0.819294 5.94004 0.780844 5.83619C0.742377 5.73235 0.723145 5.62018 0.723145 5.49966C0.723145 5.37914 0.742377 5.26697 0.780844 5.16314C0.819294 5.05929 0.885319 4.96057 0.978919 4.86699L5.47314 0.372761C5.61159 0.234294 5.78563 0.163461 5.99524 0.160261C6.20484 0.157044 6.38208 0.227878 6.52694 0.372761C6.67183 0.517628 6.74427 0.693261 6.74427 0.899661C6.74427 1.10606 6.67183 1.28169 6.52694 1.42656L2.45387 5.49966Z" fill="#35353A"/>
</svg>
