<svg width="18" height="16" viewBox="0 0 18 16" fill="none" xmlns="http://www.w3.org/2000/svg">
<path d="M17.25 6.83643C17.25 6.4386 17.092 6.05707 16.8107 5.77577C16.5294 5.49446 16.1478 5.33643 15.75 5.33643H11.01L11.73 1.90893C11.745 1.83393 11.7525 1.75143 11.7525 1.66893C11.7525 1.36143 11.625 1.07643 11.4225 0.873926L10.6275 0.0864258L5.6925 5.02143C5.415 5.29893 5.25 5.67393 5.25 6.08643V13.5864C5.25 13.9843 5.40804 14.3658 5.68934 14.6471C5.97064 14.9284 6.35218 15.0864 6.75 15.0864H13.5C14.1225 15.0864 14.655 14.7114 14.88 14.1714L17.145 8.88393C17.2125 8.71143 17.25 8.53143 17.25 8.33643V6.83643ZM0.75 15.0864H3.75V6.08643H0.75V15.0864Z" fill="black"/>
</svg>
