<svg width="27" height="27" viewBox="0 0 27 27" fill="none" xmlns="http://www.w3.org/2000/svg">
<g opacity="0.5">
<path d="M4.5 13.5H15.1875M6.75 16.875L3.375 13.5L6.75 10.125M12.375 7.875V6.75C12.375 6.15326 12.6121 5.58097 13.034 5.15901C13.456 4.73705 14.0283 4.5 14.625 4.5H20.25C20.8467 4.5 21.419 4.73705 21.841 5.15901C22.2629 5.58097 22.5 6.15326 22.5 6.75V20.25C22.5 20.8467 22.2629 21.419 21.841 21.841C21.419 22.2629 20.8467 22.5 20.25 22.5H14.625C14.0283 22.5 13.456 22.2629 13.034 21.841C12.6121 21.419 12.375 20.8467 12.375 20.25V19.125" stroke="white" stroke-width="2.25" stroke-linecap="round" stroke-linejoin="round"/>
</g>
</svg>
