<svg width="32" height="33" viewBox="0 0 32 33" fill="none" xmlns="http://www.w3.org/2000/svg">
<path d="M13.3337 20.4998L20.2537 16.4998L13.3337 12.4998V20.4998ZM28.747 10.0598C28.9203 10.6865 29.0403 11.5265 29.1203 12.5932C29.2137 13.6598 29.2537 14.5798 29.2537 15.3798L29.3337 16.4998C29.3337 19.4198 29.1203 21.5665 28.747 22.9398C28.4137 24.1398 27.6403 24.9132 26.4403 25.2465C25.8137 25.4198 24.667 25.5398 22.907 25.6198C21.1737 25.7132 19.587 25.7532 18.1203 25.7532L16.0003 25.8332C10.4137 25.8332 6.93366 25.6198 5.56033 25.2465C4.36033 24.9132 3.58699 24.1398 3.25366 22.9398C3.08033 22.3132 2.96033 21.4732 2.88033 20.4065C2.78699 19.3398 2.74699 18.4198 2.74699 17.6198L2.66699 16.4998C2.66699 13.5798 2.88033 11.4332 3.25366 10.0598C3.58699 8.85984 4.36033 8.0865 5.56033 7.75317C6.18699 7.57984 7.33366 7.45984 9.09366 7.37984C10.827 7.2865 12.4137 7.2465 13.8803 7.2465L16.0003 7.1665C21.587 7.1665 25.067 7.37984 26.4403 7.75317C27.6403 8.0865 28.4137 8.85984 28.747 10.0598Z" fill="white"/>
</svg>
