<svg width="19" height="19" viewBox="0 0 19 19" fill="none" xmlns="http://www.w3.org/2000/svg">
<path d="M17.4861 7.82709C17.4556 7.73528 17.3788 7.66526 17.2831 7.64221L12.7228 6.53878L10.2423 2.63178C10.1902 2.54975 10.0986 2.5 10 2.5C9.90141 2.5 9.80982 2.54975 9.75774 2.63178L7.27722 6.53878L2.71694 7.64221C2.62121 7.66526 2.54445 7.73528 2.51391 7.82709C2.48353 7.9189 2.50364 8.0198 2.56713 8.09358L5.59438 11.6117L5.25653 16.2005C5.2494 16.2968 5.29377 16.3898 5.37338 16.4467C5.45356 16.5035 5.55757 16.5158 5.6486 16.4794L10 14.7467L14.3514 16.4794C14.3859 16.4933 14.4225 16.5 14.4588 16.5C14.5182 16.5 14.577 16.4818 14.6266 16.4466C14.7064 16.3898 14.7506 16.2968 14.7435 16.2003L14.4056 11.6115L17.4329 8.09344C17.4964 8.0198 17.5165 7.91904 17.4861 7.82709Z" fill="#F28520"/>
</svg>
