<svg width="18" height="18" viewBox="0 0 18 18" fill="none" xmlns="http://www.w3.org/2000/svg">
<path d="M1.99997 16H3.2615L13.4981 5.7634L12.2366 4.50188L1.99997 14.7385V16ZM1.40385 17.5C1.14777 17.5 0.933108 17.4133 0.759875 17.2401C0.586625 17.0668 0.5 16.8522 0.5 16.5961V14.8635C0.5 14.6196 0.5468 14.3871 0.6404 14.1661C0.733983 13.9451 0.862825 13.7526 1.02692 13.5885L13.6904 0.930775C13.8416 0.793426 14.0086 0.687292 14.1913 0.612375C14.374 0.537458 14.5656 0.5 14.7661 0.5C14.9666 0.5 15.1608 0.535584 15.3488 0.60675C15.5368 0.6779 15.7032 0.791034 15.848 0.94615L17.0692 2.18268C17.2243 2.32754 17.3349 2.49424 17.4009 2.68278C17.4669 2.87129 17.5 3.05981 17.5 3.24833C17.5 3.44941 17.4656 3.64131 17.3969 3.82403C17.3283 4.00676 17.219 4.17373 17.0692 4.32495L4.41147 16.973C4.24738 17.1371 4.05483 17.266 3.83383 17.3596C3.61281 17.4532 3.38037 17.5 3.1365 17.5H1.40385ZM12.8563 5.1437L12.2366 4.50188L13.4981 5.7634L12.8563 5.1437Z" fill="#35353A"/>
</svg>
