<svg width="35" height="34" viewBox="0 0 35 34" fill="none" xmlns="http://www.w3.org/2000/svg">
<rect x="0.327026" width="33.8365" height="33.8365" rx="16.9182" fill="#C8232C"/>
<g clip-path="url(#clip0_309_1367)">
<path d="M17.7739 7.84961C13.2536 7.84961 8.78613 10.3358 8.78613 14.3595C8.78613 16.9184 10.5308 18.3723 11.5882 18.3723C12.0244 18.3723 12.2755 17.3691 12.2755 17.0856C12.2755 16.7475 11.2313 16.0279 11.2313 14.6212C11.2313 11.6988 13.9277 9.62702 17.4171 9.62702C20.4174 9.62702 22.6379 11.0337 22.6379 13.618C22.6379 15.5481 21.6995 19.1683 18.6595 19.1683C17.5625 19.1683 16.624 18.514 16.624 17.5763C16.624 16.2023 17.7872 14.872 17.7872 13.4544C17.7872 11.0482 13.6501 11.4844 13.6501 14.3922C13.6501 15.0029 13.7426 15.6789 14.0731 16.235C13.4651 18.3941 12.2227 21.6109 12.2227 23.8354C12.2227 24.5223 12.3416 25.1984 12.4209 25.8854C12.5707 26.0235 12.4958 26.009 12.7249 25.9399C14.9454 23.4319 14.8661 22.9412 15.8706 19.659C16.4126 20.5095 17.8136 20.9675 18.9239 20.9675C23.6028 20.9675 25.7044 17.2055 25.7044 13.8143C25.7044 10.2049 21.9242 7.84961 17.7739 7.84961Z" fill="white"/>
</g>
<defs>
<clipPath id="clip0_309_1367">
<rect width="16.9182" height="18.6101" fill="white" transform="translate(8.78613 7.61328)"/>
</clipPath>
</defs>
</svg>
