<svg width="18" height="18" viewBox="0 0 18 18" fill="none" xmlns="http://www.w3.org/2000/svg">
<path d="M9.43616 2.50457L11.2562 0.68457L17.6162 7.03457L15.7862 8.85457C15.2621 8.51608 14.638 8.3672 14.0176 8.43269C13.3972 8.49819 12.8179 8.77411 12.3762 9.21457L11.6262 9.96457C10.7062 10.8946 10.5862 12.3146 11.2762 13.3746L9.44616 15.1946L7.03616 12.7846L4.23616 15.5746C3.81615 15.9946 0.856155 18.2846 0.436155 17.8646C0.0161554 17.4446 2.29616 14.4746 2.71616 14.0546L5.50616 11.2646L3.09616 8.84457L4.92616 7.02457C5.97616 7.71457 7.40616 7.59457 8.32616 6.66457L9.07616 5.91457C10.0062 4.99457 10.1262 3.56457 9.43616 2.50457Z" fill="#C9CED4" fill-opacity="0.6"/>
</svg>
