<svg width="12" height="12" viewBox="0 0 12 12" fill="none" xmlns="http://www.w3.org/2000/svg">
<path fill-rule="evenodd" clip-rule="evenodd" d="M12 6C12 9.31371 9.31371 12 6 12C2.68629 12 0 9.31371 0 6C0 2.68629 2.68629 0 6 0C9.31371 0 12 2.68629 12 6ZM6.00154 2.57132C6.32461 2.57132 6.58651 2.83322 6.58651 3.15629V5.41563H8.84276C9.16583 5.41563 9.42773 5.67753 9.42773 6.0006C9.42773 6.32367 9.16583 6.58557 8.84276 6.58557H6.58651V8.8435C6.58651 9.16657 6.32461 9.42847 6.00154 9.42847C5.67847 9.42847 5.41657 9.16657 5.41657 8.8435V6.58557H3.15556C2.83249 6.58557 2.57059 6.32367 2.57059 6.0006C2.57059 5.67753 2.83249 5.41563 3.15556 5.41563H5.41657V3.15629C5.41657 2.83322 5.67847 2.57132 6.00154 2.57132Z" fill="#6D6E76"/>
</svg>
