<svg width="41" height="41" viewBox="0 0 41 41" fill="none" xmlns="http://www.w3.org/2000/svg">
<path d="M22.75 23.6697C20.6471 23.6652 18.6015 22.9832 16.9167 21.7247V34.6364C16.9167 34.8574 17.0045 35.0694 17.1607 35.2256C17.317 35.3819 17.529 35.4697 17.75 35.4697H21.9167C22.1377 35.4697 22.3496 35.3819 22.5059 35.2256C22.6622 35.0694 22.75 34.8574 22.75 34.6364V23.6697ZM21.9167 15.4697H18.0792C18.4163 16.4423 19.0464 17.2865 19.8827 17.8865C20.7191 18.4865 21.7207 18.8128 22.75 18.8206V16.3031C22.75 16.082 22.6622 15.8701 22.5059 15.7138C22.3496 15.5575 22.1377 15.4697 21.9167 15.4697Z" fill="#34449C"/>
<path fill-rule="evenodd" clip-rule="evenodd" d="M17.8442 20.4927C16.8058 19.7222 15.9623 18.7191 15.3816 17.5639C14.8008 16.4086 14.4989 15.1333 14.5 13.8402C14.5 9.26273 18.2108 5.55273 22.7875 5.55273C27.3642 5.55273 31.075 9.26357 31.075 13.8402C31.0779 15.5526 30.5478 17.2235 29.5583 18.6211L29.5167 18.6786L34.2992 23.4602L33.0508 24.7077L28.3375 19.9952L28.2792 20.0469C26.7658 21.3906 24.8113 22.1312 22.7875 22.1277H22.75V22.1361C20.8817 22.1277 19.1917 21.5202 17.8442 20.4927ZM29.31 13.8394C29.31 15.5693 28.6228 17.2283 27.3996 18.4515C26.1764 19.6747 24.5174 20.3619 22.7875 20.3619C21.0576 20.3619 19.3986 19.6747 18.1754 18.4515C16.9522 17.2283 16.265 15.5693 16.265 13.8394C16.265 12.1095 16.9522 10.4505 18.1754 9.2273C19.3986 8.00409 21.0576 7.3169 22.7875 7.3169C24.5174 7.3169 26.1764 8.00409 27.3996 9.2273C28.6228 10.4505 29.31 12.1095 29.31 13.8394Z" fill="#34449C"/>
<path d="M7.75001 5.46973C7.52899 5.46973 7.31703 5.55752 7.16075 5.7138C7.00447 5.87008 6.91667 6.08205 6.91667 6.30306V34.6364C6.91667 34.8574 7.00447 35.0694 7.16075 35.2256C7.31703 35.3819 7.52899 35.4697 7.75001 35.4697H11.9167C12.1377 35.4697 12.3496 35.3819 12.5059 35.2256C12.6622 35.0694 12.75 34.8574 12.75 34.6364V6.30306C12.75 6.08205 12.6622 5.87008 12.5059 5.7138C12.3496 5.55752 12.1377 5.46973 11.9167 5.46973H7.75001ZM26.9167 27.9697C26.9167 27.7487 27.0045 27.5368 27.1607 27.3805C27.317 27.2242 27.529 27.1364 27.75 27.1364H31.9167C32.1377 27.1364 32.3496 27.2242 32.5059 27.3805C32.6622 27.5368 32.75 27.7487 32.75 27.9697V34.6364C32.75 34.8574 32.6622 35.0694 32.5059 35.2256C32.3496 35.3819 32.1377 35.4697 31.9167 35.4697H27.75C27.529 35.4697 27.317 35.3819 27.1607 35.2256C27.0045 35.0694 26.9167 34.8574 26.9167 34.6364V27.9697Z" fill="#34449C"/>
</svg>
