<svg width="7" height="11" viewBox="0 0 7 11" fill="none" xmlns="http://www.w3.org/2000/svg">
<path d="M4.94616 5.50047L0.873087 1.42737C0.734621 1.28892 0.663787 1.11489 0.660587 0.905275C0.657371 0.695675 0.728204 0.518441 0.873087 0.373575C1.01795 0.228692 1.19359 0.15625 1.39999 0.15625C1.60639 0.15625 1.78202 0.228692 1.92689 0.373575L6.42111 4.8678C6.51471 4.96138 6.58074 5.0601 6.61919 5.16395C6.65765 5.26778 6.67689 5.37996 6.67689 5.50047C6.67689 5.62099 6.65765 5.73317 6.61919 5.837C6.58074 5.94085 6.51471 6.03957 6.42111 6.13315L1.92689 10.6274C1.78844 10.7658 1.6144 10.8367 1.40479 10.8399C1.19519 10.8431 1.01795 10.7723 0.873087 10.6274C0.728204 10.4825 0.655762 10.3069 0.655762 10.1005C0.655762 9.89407 0.728204 9.71844 0.873087 9.57358L4.94616 5.50047Z" fill="#35353A"/>
</svg>
