<svg width="20" height="21" viewBox="0 0 20 21" fill="none" xmlns="http://www.w3.org/2000/svg">
<g clip-path="url(#clip0_1566_4337)">
<path d="M12.0664 2.10542C11.9697 1.68782 11.7285 1.31782 11.3855 1.06071C11.0425 0.803604 10.6197 0.675918 10.1917 0.700183C9.7637 0.724449 9.35804 0.899107 9.04629 1.19334C8.73454 1.48757 8.53674 1.88246 8.48779 2.30832C8.43884 2.73419 8.54188 3.16366 8.77874 3.52095C9.0156 3.87824 9.37105 4.14039 9.78236 4.26113C10.1937 4.38187 10.6344 4.35345 11.0268 4.18088C11.4192 4.00831 11.7381 3.70268 11.9271 3.31792C13.0777 3.57993 14.1472 4.1179 15.0436 4.88542C15.9399 5.65295 16.6361 6.62699 17.0721 7.72355L18.1814 7.2873C17.6679 5.98667 16.841 4.83307 15.7742 3.92905C14.7073 3.02502 13.4337 2.39859 12.0664 2.10542ZM10.3027 3.12917C10.2215 3.13178 10.1406 3.11804 10.0648 3.08876C9.98898 3.05948 9.91985 3.01527 9.86148 2.95874C9.80311 2.90222 9.7567 2.83454 9.725 2.75972C9.69331 2.68491 9.67697 2.60449 9.67697 2.52323C9.67697 2.44198 9.69331 2.36156 9.725 2.28674C9.7567 2.21193 9.80311 2.14425 9.86148 2.08772C9.91985 2.0312 9.98898 1.98699 10.0648 1.95771C10.1406 1.92843 10.2215 1.91469 10.3027 1.9173C10.4635 1.9173 10.6177 1.98117 10.7314 2.09486C10.8451 2.20856 10.9089 2.36276 10.9089 2.52355C10.9089 2.68433 10.8451 2.83854 10.7314 2.95223C10.6177 3.06592 10.4635 3.12917 10.3027 3.12917ZM7.63581 3.63292L7.18769 2.52417C5.88706 3.03771 4.73346 3.86463 3.82944 4.93145C2.92542 5.99826 2.29898 7.27191 2.00581 8.63917C1.58821 8.73595 1.21821 8.97712 0.961101 9.32013C0.703995 9.66314 0.576309 10.0859 0.600574 10.5139C0.62484 10.9419 0.799497 11.3476 1.09373 11.6593C1.38796 11.9711 1.78285 12.1689 2.20871 12.2178C2.63458 12.2668 3.06405 12.1637 3.42134 11.9269C3.77863 11.69 4.04078 11.3346 4.16152 10.9232C4.28226 10.5119 4.25384 10.0712 4.08127 9.67879C3.9087 9.28639 3.60307 8.96755 3.21831 8.77855C3.4814 7.62659 4.02112 6.55606 4.7908 5.65951C5.56049 4.76296 6.53697 4.06738 7.63581 3.63292ZM2.42331 11.0092C2.3437 11.0092 2.26486 10.9935 2.19131 10.963C2.11776 10.9326 2.05092 10.8879 1.99463 10.8316C1.93833 10.7753 1.89368 10.7085 1.86321 10.6349C1.83274 10.5614 1.81706 10.4825 1.81706 10.4029C1.81706 10.3233 1.83274 10.2445 1.86321 10.1709C1.89368 10.0974 1.93833 10.0305 1.99463 9.97424C2.05092 9.91794 2.11776 9.87329 2.19131 9.84282C2.26486 9.81235 2.3437 9.79667 2.42331 9.79667C2.5841 9.79667 2.7383 9.86054 2.852 9.97424C2.96569 10.0879 3.02956 10.2421 3.02956 10.4029C3.02956 10.5637 2.96569 10.7179 2.852 10.8316C2.7383 10.9453 2.5841 11.0092 2.42331 11.0092ZM10.3027 16.4635C9.96458 16.4646 9.63346 16.56 9.34653 16.7388C9.05959 16.9177 8.82819 17.173 8.67831 17.476C7.52754 17.2141 6.45778 16.6761 5.56133 15.9084C4.66487 15.1408 3.96864 14.1665 3.53269 13.0698L2.42394 13.5179C2.93914 14.8207 3.76884 15.9758 4.839 16.88C5.90916 17.7841 7.18651 18.4093 8.55706 18.6998C8.63579 19.0335 8.80722 19.3381 9.05159 19.5785C9.29596 19.819 9.60331 19.9855 9.93821 20.0588C10.2731 20.1321 10.6219 20.1093 10.9444 19.993C11.2669 19.8766 11.5499 19.6715 11.7609 19.4013C11.9718 19.131 12.1021 18.8067 12.1367 18.4656C12.1713 18.1245 12.1087 17.7806 11.9563 17.4735C11.8039 17.1664 11.5678 16.9087 11.2752 16.73C10.9826 16.5513 10.6455 16.4589 10.3027 16.4635ZM10.3027 18.8879C10.1419 18.8879 9.9877 18.824 9.874 18.7104C9.76031 18.5967 9.69644 18.4425 9.69644 18.2817C9.69644 18.1209 9.76031 17.9667 9.874 17.853C9.9877 17.7393 10.1419 17.6754 10.3027 17.6754C10.4635 17.6754 10.6177 17.7393 10.7314 17.853C10.8451 17.9667 10.9089 18.1209 10.9089 18.2817C10.9089 18.4425 10.8451 18.5967 10.7314 18.7104C10.6177 18.824 10.4635 18.8879 10.3027 18.8879ZM19.9996 10.4023C20.0007 10.0778 19.9149 9.75889 19.7512 9.47869C19.5876 9.19849 19.3519 8.96718 19.0687 8.80877C18.7855 8.65036 18.465 8.5706 18.1406 8.57778C17.8161 8.58496 17.4995 8.67882 17.2236 8.84961C16.9477 9.0204 16.7225 9.2619 16.5713 9.54907C16.4202 9.83624 16.3487 10.1586 16.3641 10.4828C16.3796 10.8069 16.4815 11.121 16.6593 11.3925C16.8371 11.664 17.0842 11.8829 17.3752 12.0267C17.1131 13.1773 16.5751 14.247 15.8074 15.1433C15.0398 16.0396 14.0656 16.7358 12.9689 17.1717L13.4177 18.281C14.7205 17.7658 15.8755 16.9361 16.7797 15.866C17.6839 14.7958 18.3091 13.5185 18.5996 12.1479C18.9941 12.0546 19.3461 11.8322 19.5998 11.5159C19.8534 11.1996 19.9941 10.8077 19.9996 10.4023ZM18.1808 11.0085C18.02 11.0085 17.8658 10.9447 17.7521 10.831C17.6384 10.7173 17.5746 10.5631 17.5746 10.4023C17.5746 10.2415 17.6384 10.0873 17.7521 9.97361C17.8658 9.85992 18.02 9.79605 18.1808 9.79605C18.3416 9.79605 18.4958 9.85992 18.6095 9.97361C18.7232 10.0873 18.7871 10.2415 18.7871 10.4023C18.7871 10.5631 18.7232 10.7173 18.6095 10.831C18.4958 10.9447 18.3416 11.0085 18.1808 11.0085Z" fill="#C9CED4" fill-opacity="0.6"/>
<path d="M11.9937 10.3181C12.3385 9.98144 12.5752 9.54959 12.6734 9.07775C12.7717 8.60591 12.7271 8.1155 12.5453 7.66914C12.3635 7.22278 12.0528 6.84073 11.6529 6.57178C11.2529 6.30283 10.7819 6.15918 10.3 6.15918C9.818 6.15918 9.34699 6.30283 8.94705 6.57178C8.54712 6.84073 8.23643 7.22278 8.05464 7.66914C7.87286 8.1155 7.82825 8.60591 7.92649 9.07775C8.02473 9.54959 8.26138 9.98144 8.60621 10.3181C8.19585 10.5955 7.85971 10.9692 7.6272 11.4066C7.39469 11.8439 7.27289 12.3316 7.27246 12.8269V14.0388H13.3331V12.8263C13.332 12.3305 13.2094 11.8425 12.9759 11.4051C12.7424 10.9677 12.4051 10.5949 11.9937 10.3181ZM9.09059 8.58377C9.09059 8.42454 9.12195 8.26687 9.18288 8.11977C9.24382 7.97266 9.33313 7.83899 9.44572 7.7264C9.55831 7.61381 9.69197 7.5245 9.83908 7.46357C9.98619 7.40263 10.1439 7.37127 10.3031 7.37127C10.4623 7.37127 10.62 7.40263 10.7671 7.46357C10.9142 7.5245 11.0479 7.61381 11.1605 7.7264C11.273 7.83899 11.3624 7.97266 11.4233 8.11977C11.4842 8.26687 11.5156 8.42454 11.5156 8.58377C11.5156 8.90535 11.3878 9.21375 11.1605 9.44114C10.9331 9.66852 10.6247 9.79627 10.3031 9.79627C9.98151 9.79627 9.67311 9.66852 9.44572 9.44114C9.21833 9.21375 9.09059 8.90535 9.09059 8.58377ZM8.48434 12.8263C8.47986 12.5846 8.52358 12.3445 8.61295 12.12C8.70233 11.8954 8.83556 11.691 9.00486 11.5185C9.17416 11.346 9.37614 11.209 9.59899 11.1155C9.82184 11.022 10.0611 10.9738 10.3028 10.9738C10.5445 10.9738 10.7837 11.022 11.0066 11.1155C11.2294 11.209 11.4314 11.346 11.6007 11.5185C11.77 11.691 11.9032 11.8954 11.9926 12.12C12.082 12.3445 12.1257 12.5846 12.1212 12.8263H8.48434Z" fill="#C9CED4" fill-opacity="0.6"/>
</g>
<defs>
<clipPath id="clip0_1566_4337">
<rect width="20" height="20" fill="white" transform="translate(0 0.0996094)"/>
</clipPath>
</defs>
</svg>
