<svg width="18" height="18" viewBox="0 0 18 18" fill="none" xmlns="http://www.w3.org/2000/svg">
<path d="M6.51916 13.1155C4.81148 13.1155 3.36533 12.5232 2.18073 11.3386C0.996117 10.1539 0.403809 8.7078 0.403809 7.00012C0.403809 5.29243 0.996117 3.84628 2.18073 2.66167C3.36533 1.47707 4.81148 0.884766 6.51916 0.884766C8.22684 0.884766 9.67299 1.47707 10.8576 2.66167C12.0422 3.84628 12.6345 5.29243 12.6345 7.00012C12.6345 7.71422 12.5147 8.39627 12.2749 9.04627C12.0352 9.69627 11.7153 10.2616 11.3153 10.7424L17.0692 16.4963C17.2076 16.6347 17.2784 16.8088 17.2816 17.0184C17.2849 17.228 17.214 17.4052 17.0692 17.5501C16.9243 17.695 16.7486 17.7674 16.5422 17.7674C16.3358 17.7674 16.1602 17.695 16.0153 17.5501L10.2615 11.7962C9.76146 12.2091 9.18646 12.5321 8.53646 12.7655C7.88646 12.9988 7.21403 13.1155 6.51916 13.1155ZM6.51916 11.6155C7.80763 11.6155 8.89897 11.1684 9.79321 10.2742C10.6874 9.37993 11.1346 8.28858 11.1346 7.00012C11.1346 5.71165 10.6874 4.6203 9.79321 3.72607C8.89897 2.83183 7.80763 2.38472 6.51916 2.38472C5.23069 2.38472 4.13934 2.83183 3.24511 3.72607C2.35089 4.6203 1.90378 5.71165 1.90378 7.00012C1.90378 8.28858 2.35089 9.37993 3.24511 10.2742C4.13934 11.1684 5.23069 11.6155 6.51916 11.6155Z" fill="#35353A"/>
</svg>
