<svg width="27" height="27" viewBox="0 0 27 27" fill="none" xmlns="http://www.w3.org/2000/svg">
<g opacity="0.5">
<path d="M10.4063 24.75L9.95635 21.15C9.7126 21.0562 9.4831 20.9438 9.26785 20.8125C9.0526 20.6812 8.84147 20.5406 8.63447 20.3906L5.2876 21.7969L2.19385 16.4531L5.09072 14.2594C5.07197 14.1281 5.0626 14.0017 5.0626 13.8802V13.1209C5.0626 12.9986 5.07197 12.8719 5.09072 12.7406L2.19385 10.5469L5.2876 5.20312L8.63447 6.60938C8.84072 6.45937 9.05635 6.31875 9.28135 6.1875C9.50635 6.05625 9.73135 5.94375 9.95635 5.85L10.4063 2.25H16.5938L17.0438 5.85C17.2876 5.94375 17.5175 6.05625 17.7335 6.1875C17.9495 6.31875 18.1602 6.45937 18.3657 6.60938L21.7126 5.20312L24.8063 10.5469L21.9095 12.7406C21.9282 12.8719 21.9376 12.9986 21.9376 13.1209V13.8791C21.9376 14.0014 21.9188 14.1281 21.8813 14.2594L24.7782 16.4531L21.6845 21.7969L18.3657 20.3906C18.1595 20.5406 17.9438 20.6812 17.7188 20.8125C17.4938 20.9438 17.2688 21.0562 17.0438 21.15L16.5938 24.75H10.4063ZM12.3751 22.5H14.597L14.9907 19.5188C15.572 19.3687 16.1112 19.1486 16.6085 18.8584C17.1057 18.5681 17.5602 18.2164 17.972 17.8031L20.7563 18.9563L21.8532 17.0437L19.4345 15.2156C19.5282 14.9531 19.5938 14.6768 19.6313 14.3865C19.6688 14.0963 19.6876 13.8007 19.6876 13.5C19.6876 13.1993 19.6688 12.9041 19.6313 12.6146C19.5938 12.3251 19.5282 12.0484 19.4345 11.7844L21.8532 9.95625L20.7563 8.04375L17.972 9.225C17.5595 8.79375 17.105 8.433 16.6085 8.14275C16.112 7.8525 15.5727 7.632 14.9907 7.48125L14.6251 4.5H12.4032L12.0095 7.48125C11.4282 7.63125 10.8893 7.85175 10.3928 8.14275C9.89635 8.43375 9.44147 8.78513 9.02822 9.19688L6.24385 8.04375L5.14697 9.95625L7.56572 11.7562C7.47197 12.0375 7.40635 12.3187 7.36885 12.6C7.33135 12.8812 7.3126 13.1812 7.3126 13.5C7.3126 13.8 7.33135 14.0906 7.36885 14.3719C7.40635 14.6531 7.47197 14.9344 7.56572 15.2156L5.14697 17.0437L6.24385 18.9563L9.02822 17.775C9.44072 18.2063 9.8956 18.5674 10.3928 18.8584C10.8901 19.1494 11.429 19.3695 12.0095 19.5188L12.3751 22.5ZM13.5563 17.4375C14.6438 17.4375 15.572 17.0531 16.3407 16.2844C17.1095 15.5156 17.4938 14.5875 17.4938 13.5C17.4938 12.4125 17.1095 11.4844 16.3407 10.7156C15.572 9.94687 14.6438 9.5625 13.5563 9.5625C12.4501 9.5625 11.5171 9.94687 10.7573 10.7156C9.9976 11.4844 9.6181 12.4125 9.61885 13.5C9.6196 14.5875 9.99947 15.5156 10.7585 16.2844C11.5175 17.0531 12.4501 17.4375 13.5563 17.4375Z" fill="white"/>
</g>
</svg>
