<svg width="16" height="17" viewBox="0 0 16 17" fill="none" xmlns="http://www.w3.org/2000/svg">
<path d="M5.33398 1.83325H10.6673C11.7282 1.83325 12.7456 2.25468 13.4957 3.00482C14.2459 3.75497 14.6673 4.77239 14.6673 5.83325V11.1666C14.6673 12.2275 14.2459 13.2449 13.4957 13.995C12.7456 14.7452 11.7282 15.1666 10.6673 15.1666H5.33398C4.27312 15.1666 3.2557 14.7452 2.50556 13.995C1.75541 13.2449 1.33398 12.2275 1.33398 11.1666L1.33398 5.83325C1.33398 4.77239 1.75541 3.75497 2.50556 3.00482C3.2557 2.25468 4.27312 1.83325 5.33398 1.83325ZM5.33398 3.16659C4.62674 3.16659 3.94846 3.44754 3.44837 3.94763C2.94827 4.44773 2.66732 5.12601 2.66732 5.83325V11.1666C2.66732 11.8738 2.94827 12.5521 3.44837 13.0522C3.94846 13.5523 4.62674 13.8333 5.33398 13.8333H10.6673C11.3746 13.8333 12.0528 13.5523 12.5529 13.0522C13.053 12.5521 13.334 11.8738 13.334 11.1666V5.83325C13.334 5.12601 13.053 4.44773 12.5529 3.94763C12.0528 3.44754 11.3746 3.16659 10.6673 3.16659H5.33398ZM9.33398 7.83325H11.334C11.5108 7.83325 11.6804 7.90349 11.8054 8.02851C11.9304 8.15354 12.0007 8.32311 12.0007 8.49992C12.0007 8.67673 11.9304 8.8463 11.8054 8.97132C11.6804 9.09635 11.5108 9.16659 11.334 9.16659H9.33398C9.15717 9.16659 8.9876 9.09635 8.86258 8.97132C8.73756 8.8463 8.66732 8.67673 8.66732 8.49992C8.66732 8.32311 8.73756 8.15354 8.86258 8.02851C8.9876 7.90349 9.15717 7.83325 9.33398 7.83325ZM8.00065 10.4999H11.334C11.5108 10.4999 11.6804 10.5702 11.8054 10.6952C11.9304 10.8202 12.0007 10.9898 12.0007 11.1666C12.0007 11.3434 11.9304 11.513 11.8054 11.638C11.6804 11.763 11.5108 11.8333 11.334 11.8333H8.00065C7.82384 11.8333 7.65427 11.763 7.52925 11.638C7.40422 11.513 7.33398 11.3434 7.33398 11.1666C7.33398 10.9898 7.40422 10.8202 7.52925 10.6952C7.65427 10.5702 7.82384 10.4999 8.00065 10.4999ZM8.00065 5.16659H11.334C11.5108 5.16659 11.6804 5.23682 11.8054 5.36185C11.9304 5.48687 12.0007 5.65644 12.0007 5.83325C12.0007 6.01006 11.9304 6.17963 11.8054 6.30466C11.6804 6.42968 11.5108 6.49992 11.334 6.49992H8.00065C7.82384 6.49992 7.65427 6.42968 7.52925 6.30466C7.40422 6.17963 7.33398 6.01006 7.33398 5.83325C7.33398 5.65644 7.40422 5.48687 7.52925 5.36185C7.65427 5.23682 7.82384 5.16659 8.00065 5.16659ZM5.21932 8.66192L6.63398 7.24659C6.69592 7.18469 6.76945 7.1356 6.85036 7.10212C6.93127 7.06864 7.01799 7.05142 7.10555 7.05145C7.19312 7.05148 7.27982 7.06876 7.36071 7.1023C7.4416 7.13584 7.51509 7.18498 7.57698 7.24692C7.63888 7.30886 7.68797 7.38238 7.72145 7.4633C7.75493 7.54421 7.77215 7.63092 7.77212 7.71849C7.77209 7.80605 7.75481 7.89276 7.72127 7.97364C7.68773 8.05453 7.63859 8.12802 7.57665 8.18992L5.69132 10.0753C5.6294 10.1372 5.55588 10.1864 5.47495 10.22C5.39401 10.2535 5.30726 10.2708 5.21965 10.2708C5.13204 10.2708 5.04529 10.2535 4.96436 10.22C4.88343 10.1864 4.8099 10.1372 4.74798 10.0753L3.80532 9.13325C3.68388 9.00752 3.61668 8.83912 3.6182 8.66432C3.61972 8.48952 3.68983 8.32231 3.81344 8.19871C3.93704 8.0751 4.10425 8.00499 4.27905 8.00347C4.45385 8.00195 4.62225 8.06915 4.74798 8.19059L5.21932 8.66192Z" fill="#34449C"/>
</svg>
