<svg width="16" height="17" viewBox="0 0 16 17" fill="none" xmlns="http://www.w3.org/2000/svg">
<path d="M2.66667 9.16667H6.66667C7.03333 9.16667 7.33333 8.86667 7.33333 8.5V3.16667C7.33333 2.8 7.03333 2.5 6.66667 2.5H2.66667C2.3 2.5 2 2.8 2 3.16667V8.5C2 8.86667 2.3 9.16667 2.66667 9.16667ZM2.66667 14.5H6.66667C7.03333 14.5 7.33333 14.2 7.33333 13.8333V11.1667C7.33333 10.8 7.03333 10.5 6.66667 10.5H2.66667C2.3 10.5 2 10.8 2 11.1667V13.8333C2 14.2 2.3 14.5 2.66667 14.5ZM9.33333 14.5H13.3333C13.7 14.5 14 14.2 14 13.8333V8.5C14 8.13333 13.7 7.83333 13.3333 7.83333H9.33333C8.96667 7.83333 8.66667 8.13333 8.66667 8.5V13.8333C8.66667 14.2 8.96667 14.5 9.33333 14.5ZM8.66667 3.16667V5.83333C8.66667 6.2 8.96667 6.5 9.33333 6.5H13.3333C13.7 6.5 14 6.2 14 5.83333V3.16667C14 2.8 13.7 2.5 13.3333 2.5H9.33333C8.96667 2.5 8.66667 2.8 8.66667 3.16667Z" fill="#34449C"/>
</svg>
