<svg width="16" height="17" viewBox="0 0 16 17" fill="none" xmlns="http://www.w3.org/2000/svg">
<path d="M6.16745 15.1666L5.90078 13.0333C5.75634 12.9777 5.62034 12.911 5.49278 12.8333C5.36523 12.7555 5.24011 12.6721 5.11745 12.5833L3.13411 13.4166L1.30078 10.2499L3.01745 8.94992C3.00634 8.87214 3.00078 8.79725 3.00078 8.72525V8.27525C3.00078 8.20281 3.00634 8.1277 3.01745 8.04992L1.30078 6.74992L3.13411 3.58325L5.11745 4.41659C5.23967 4.3277 5.36745 4.24436 5.50078 4.16659C5.63411 4.08881 5.76745 4.02214 5.90078 3.96659L6.16745 1.83325H9.83412L10.1008 3.96659C10.2452 4.02214 10.3814 4.08881 10.5094 4.16659C10.6374 4.24436 10.7623 4.3277 10.8841 4.41659L12.8674 3.58325L14.7008 6.74992L12.9841 8.04992C12.9952 8.1277 13.0008 8.20281 13.0008 8.27525V8.72459C13.0008 8.79703 12.9897 8.87214 12.9674 8.94992L14.6841 10.2499L12.8508 13.4166L10.8841 12.5833C10.7619 12.6721 10.6341 12.7555 10.5008 12.8333C10.3674 12.911 10.2341 12.9777 10.1008 13.0333L9.83412 15.1666H6.16745ZM7.33412 13.8333H8.65078L8.88411 12.0666C9.22856 11.9777 9.54811 11.8473 9.84278 11.6753C10.1374 11.5033 10.4068 11.2948 10.6508 11.0499L12.3008 11.7333L12.9508 10.5999L11.5174 9.51659C11.573 9.36103 11.6119 9.19725 11.6341 9.02525C11.6563 8.85325 11.6674 8.67814 11.6674 8.49992C11.6674 8.3217 11.6563 8.14681 11.6341 7.97525C11.6119 7.8037 11.573 7.6397 11.5174 7.48325L12.9508 6.39992L12.3008 5.26659L10.6508 5.96659C10.4063 5.71103 10.137 5.49725 9.84278 5.32525C9.54856 5.15325 9.229 5.02259 8.88411 4.93325L8.66745 3.16659H7.35078L7.11745 4.93325C6.773 5.02214 6.45367 5.15281 6.15945 5.32525C5.86523 5.4977 5.59567 5.70592 5.35078 5.94992L3.70078 5.26659L3.05078 6.39992L4.48411 7.46659C4.42856 7.63325 4.38967 7.79992 4.36745 7.96659C4.34523 8.13325 4.33411 8.31103 4.33411 8.49992C4.33411 8.6777 4.34523 8.84992 4.36745 9.01659C4.38967 9.18325 4.42856 9.34992 4.48411 9.51659L3.05078 10.5999L3.70078 11.7333L5.35078 11.0333C5.59523 11.2888 5.86478 11.5028 6.15945 11.6753C6.45411 11.8477 6.77345 11.9781 7.11745 12.0666L7.33412 13.8333ZM8.03411 10.8333C8.67856 10.8333 9.22856 10.6055 9.68411 10.1499C10.1397 9.69436 10.3674 9.14436 10.3674 8.49992C10.3674 7.85547 10.1397 7.30547 9.68411 6.84992C9.22856 6.39436 8.67856 6.16659 8.03411 6.16659C7.37856 6.16659 6.82567 6.39436 6.37545 6.84992C5.92523 7.30547 5.70034 7.85547 5.70078 8.49992C5.70123 9.14436 5.92634 9.69436 6.37611 10.1499C6.82589 10.6055 7.37856 10.8333 8.03411 10.8333Z" fill="#34449C"/>
</svg>
