<svg width="16" height="17" viewBox="0 0 16 17" fill="none" xmlns="http://www.w3.org/2000/svg">
<path d="M8 13.8334C8.83333 13.8334 9.54178 13.5418 10.1253 12.9587C10.7089 12.3756 11.0004 11.6672 11 10.8334C10.9996 9.99961 10.708 9.29139 10.1253 8.70872C9.54267 8.12606 8.83422 7.83428 8 7.83339C7.16578 7.8325 6.45756 8.12428 5.87533 8.70872C5.29311 9.29317 5.00133 10.0014 5 10.8334C4.99867 11.6654 5.29044 12.3738 5.87533 12.9587C6.46022 13.5436 7.16844 13.8352 8 13.8334ZM6.076 7.72339C6.28933 7.58384 6.51667 7.47161 6.758 7.38672C6.99978 7.30184 7.24844 7.23961 7.504 7.20006L5.98667 4.19206H4.32L6.076 7.72339ZM9.924 7.72339L11.696 4.19206H10.0133L8.558 7.07672L8.63133 7.22339C8.86378 7.26784 9.08867 7.33006 9.306 7.41006C9.52289 7.49006 9.72911 7.5945 9.92467 7.72339M4.81867 13.1234C4.82622 13.0487 4.84356 12.9665 4.87067 12.8767C4.89733 12.7861 4.93644 12.6905 4.988 12.5901C4.78267 12.2581 4.63444 11.8996 4.54333 11.5147C4.45222 11.1298 4.42867 10.7336 4.47267 10.3261C4.47267 9.99272 4.53044 9.67628 4.646 9.37672C4.76111 9.07761 4.92111 8.8085 5.126 8.56939C4.96733 8.5965 4.82756 8.65339 4.70667 8.74006C4.58667 8.82717 4.50089 8.93095 4.44933 9.05139C3.95378 9.17184 3.56733 9.45072 3.29 9.88806C3.01311 10.3249 2.92867 10.8094 3.03667 11.3414C3.03667 11.8369 3.20978 12.2578 3.556 12.6041C3.90178 12.9498 4.32267 13.1234 4.81867 13.1234ZM11.1827 13.1227C11.7862 13.0872 12.2956 12.8507 12.7107 12.4134C13.1262 11.9765 13.334 11.4498 13.334 10.8334C13.334 10.2169 13.1262 9.69028 12.7107 9.25339C12.2951 8.8165 11.7858 8.57984 11.1827 8.54339C11.1316 8.54339 11.0804 8.54561 11.0293 8.55006C10.9778 8.5545 10.9262 8.56095 10.8747 8.56939C11.1236 8.88317 11.3178 9.2325 11.4573 9.61739C11.5973 10.0023 11.6673 10.4076 11.6673 10.8334C11.6673 11.2592 11.5976 11.6645 11.458 12.0494C11.318 12.4343 11.1238 12.7836 10.8753 13.0974C10.9264 13.1063 10.9776 13.1127 11.0287 13.1167C11.0802 13.1212 11.1316 13.1227 11.1827 13.1227ZM8 14.5001C7.57289 14.5001 7.16933 14.4341 6.78933 14.3021C6.40933 14.1701 6.06422 13.9801 5.754 13.7321C5.63667 13.7716 5.51311 13.7983 5.38333 13.8121C5.25356 13.8258 5.12022 13.8329 4.98333 13.8334C4.16022 13.8334 3.45733 13.5421 2.87467 12.9594C2.292 12.3767 2.00044 11.6736 2 10.8501C2 10.0372 2.28378 9.34184 2.85133 8.76406C3.41889 8.18628 4.10644 7.8885 4.914 7.87072C5.00822 7.87072 5.098 7.87717 5.18333 7.89006C5.26867 7.9025 5.354 7.91739 5.43933 7.93472L3.23067 3.52606H6.41067L8 6.70539L9.59 3.52539H12.7693L10.5893 7.88872C10.6667 7.87139 10.746 7.8585 10.8273 7.85006C10.9082 7.84117 10.9916 7.83672 11.0773 7.83672C11.8933 7.85761 12.5844 8.15695 13.1507 8.73472C13.7169 9.3125 14 10.0121 14 10.8334C14 11.6676 13.7087 12.3763 13.126 12.9594C12.5433 13.5425 11.8347 13.8338 11 13.8334C10.8658 13.8334 10.7353 13.8263 10.6087 13.8121C10.482 13.7978 10.3598 13.7712 10.242 13.7321C9.93222 13.9716 9.58778 14.1594 9.20867 14.2954C8.82956 14.4314 8.42667 14.4996 8 14.5001ZM6.95933 12.3587L7.34867 11.0727L6.308 10.3307H7.594L8 8.97472L8.40667 10.3307H9.69267L8.65133 11.0734L9.04133 12.3594L8 11.5667L6.95933 12.3587Z" fill="#34449C"/>
</svg>
