<svg width="18" height="18" viewBox="0 0 18 18" fill="none" xmlns="http://www.w3.org/2000/svg">
<path d="M3.58366 4.53288C3.25214 4.53288 2.9342 4.40118 2.69978 4.16676C2.46535 3.93234 2.33366 3.6144 2.33366 3.28288C2.33366 2.95136 2.46535 2.63341 2.69978 2.39899C2.9342 2.16457 3.25214 2.03288 3.58366 2.03288C3.91518 2.03288 4.23312 2.16457 4.46754 2.39899C4.70196 2.63341 4.83366 2.95136 4.83366 3.28288C4.83366 3.6144 4.70196 3.93234 4.46754 4.16676C4.23312 4.40118 3.91518 4.53288 3.58366 4.53288ZM16.842 8.34954L9.34199 0.849544C9.04199 0.549544 8.62533 0.366211 8.16699 0.366211H2.33366C1.40866 0.366211 0.666992 1.10788 0.666992 2.03288V7.86621C0.666992 8.32454 0.850325 8.74121 1.15866 9.04121L8.65033 16.5412C8.95866 16.8412 9.37533 17.0329 9.83366 17.0329C10.292 17.0329 10.7087 16.8412 11.0087 16.5412L16.842 10.7079C17.1503 10.4079 17.3337 9.99121 17.3337 9.53288C17.3337 9.06621 17.142 8.64954 16.842 8.34954Z" fill="#C9CED4" fill-opacity="0.6"/>
</svg>
