<svg width="23" height="23" viewBox="0 0 23 23" fill="none" xmlns="http://www.w3.org/2000/svg">
<path d="M7 0.25H16C17.7902 0.25 19.5071 0.961159 20.773 2.22703C22.0388 3.4929 22.75 5.20979 22.75 7V16C22.75 17.7902 22.0388 19.5071 20.773 20.773C19.5071 22.0388 17.7902 22.75 16 22.75H7C5.20979 22.75 3.4929 22.0388 2.22703 20.773C0.961159 19.5071 0.25 17.7902 0.25 16L0.25 7C0.25 5.20979 0.961159 3.4929 2.22703 2.22703C3.4929 0.961159 5.20979 0.25 7 0.25ZM13.75 10.375C13.4516 10.375 13.1655 10.4935 12.9545 10.7045C12.7435 10.9155 12.625 11.2016 12.625 11.5C12.625 11.7984 12.7435 12.0845 12.9545 12.2955C13.1655 12.5065 13.4516 12.625 13.75 12.625H17.125C17.4234 12.625 17.7095 12.5065 17.9205 12.2955C18.1315 12.0845 18.25 11.7984 18.25 11.5C18.25 11.2016 18.1315 10.9155 17.9205 10.7045C17.7095 10.4935 17.4234 10.375 17.125 10.375H13.75ZM11.5 14.875C11.2016 14.875 10.9155 14.9935 10.7045 15.2045C10.4935 15.4155 10.375 15.7016 10.375 16C10.375 16.2984 10.4935 16.5845 10.7045 16.7955C10.9155 17.0065 11.2016 17.125 11.5 17.125H17.125C17.4234 17.125 17.7095 17.0065 17.9205 16.7955C18.1315 16.5845 18.25 16.2984 18.25 16C18.25 15.7016 18.1315 15.4155 17.9205 15.2045C17.7095 14.9935 17.4234 14.875 17.125 14.875H11.5ZM11.5 5.875C11.2016 5.875 10.9155 5.99353 10.7045 6.2045C10.4935 6.41548 10.375 6.70163 10.375 7C10.375 7.29837 10.4935 7.58452 10.7045 7.7955C10.9155 8.00647 11.2016 8.125 11.5 8.125H17.125C17.4234 8.125 17.7095 8.00647 17.9205 7.7955C18.1315 7.58452 18.25 7.29837 18.25 7C18.25 6.70163 18.1315 6.41548 17.9205 6.2045C17.7095 5.99353 17.4234 5.875 17.125 5.875H11.5ZM6.8065 11.7734L6.01112 10.978C5.90735 10.8706 5.78321 10.7848 5.64596 10.7259C5.5087 10.6669 5.36108 10.6359 5.2117 10.6346C5.06233 10.6333 4.91419 10.6618 4.77593 10.7183C4.63767 10.7749 4.51206 10.8584 4.40643 10.9641C4.3008 11.0697 4.21727 11.1953 4.1607 11.3336C4.10413 11.4718 4.07567 11.6199 4.07697 11.7693C4.07827 11.9187 4.1093 12.0663 4.16826 12.2036C4.22722 12.3408 4.31293 12.465 4.42037 12.5687L6.01112 14.1595C6.11561 14.2641 6.23968 14.3471 6.37625 14.4037C6.51283 14.4603 6.65922 14.4894 6.80706 14.4894C6.9549 14.4894 7.1013 14.4603 7.23787 14.4037C7.37444 14.3471 7.49852 14.2641 7.603 14.1595L10.7845 10.978C10.9957 10.7671 11.1145 10.4808 11.1148 10.1823C11.115 9.88376 10.9966 9.59737 10.7856 9.38613C10.5747 9.17488 10.2885 9.05609 9.98992 9.05587C9.69139 9.05566 9.40499 9.17405 9.19375 9.385L6.8065 11.7722V11.7734Z" fill="white"/>
</svg>
