<svg width="23" height="23" viewBox="0 0 23 23" fill="none" xmlns="http://www.w3.org/2000/svg">
<path d="M7 0.25H16C17.7902 0.25 19.5071 0.961159 20.773 2.22703C22.0388 3.4929 22.75 5.20979 22.75 7V16C22.75 17.7902 22.0388 19.5071 20.773 20.773C19.5071 22.0388 17.7902 22.75 16 22.75H7C5.20979 22.75 3.4929 22.0388 2.22703 20.773C0.961159 19.5071 0.25 17.7902 0.25 16L0.25 7C0.25 5.20979 0.961159 3.4929 2.22703 2.22703C3.4929 0.961159 5.20979 0.25 7 0.25ZM7 2.5C5.80653 2.5 4.66193 2.97411 3.81802 3.81802C2.97411 4.66193 2.5 5.80653 2.5 7V16C2.5 17.1935 2.97411 18.3381 3.81802 19.182C4.66193 20.0259 5.80653 20.5 7 20.5H16C17.1935 20.5 18.3381 20.0259 19.182 19.182C20.0259 18.3381 20.5 17.1935 20.5 16V7C20.5 5.80653 20.0259 4.66193 19.182 3.81802C18.3381 2.97411 17.1935 2.5 16 2.5H7ZM13.75 10.375H17.125C17.4234 10.375 17.7095 10.4935 17.9205 10.7045C18.1315 10.9155 18.25 11.2016 18.25 11.5C18.25 11.7984 18.1315 12.0845 17.9205 12.2955C17.7095 12.5065 17.4234 12.625 17.125 12.625H13.75C13.4516 12.625 13.1655 12.5065 12.9545 12.2955C12.7435 12.0845 12.625 11.7984 12.625 11.5C12.625 11.2016 12.7435 10.9155 12.9545 10.7045C13.1655 10.4935 13.4516 10.375 13.75 10.375ZM11.5 14.875H17.125C17.4234 14.875 17.7095 14.9935 17.9205 15.2045C18.1315 15.4155 18.25 15.7016 18.25 16C18.25 16.2984 18.1315 16.5845 17.9205 16.7955C17.7095 17.0065 17.4234 17.125 17.125 17.125H11.5C11.2016 17.125 10.9155 17.0065 10.7045 16.7955C10.4935 16.5845 10.375 16.2984 10.375 16C10.375 15.7016 10.4935 15.4155 10.7045 15.2045C10.9155 14.9935 11.2016 14.875 11.5 14.875ZM11.5 5.875H17.125C17.4234 5.875 17.7095 5.99353 17.9205 6.2045C18.1315 6.41548 18.25 6.70163 18.25 7C18.25 7.29837 18.1315 7.58452 17.9205 7.7955C17.7095 8.00647 17.4234 8.125 17.125 8.125H11.5C11.2016 8.125 10.9155 8.00647 10.7045 7.7955C10.4935 7.58452 10.375 7.29837 10.375 7C10.375 6.70163 10.4935 6.41548 10.7045 6.2045C10.9155 5.99353 11.2016 5.875 11.5 5.875ZM6.8065 11.7734L9.19375 9.385C9.29827 9.28055 9.42235 9.19771 9.55889 9.14121C9.69543 9.08471 9.84176 9.05566 9.98952 9.05571C10.1373 9.05576 10.2836 9.08492 10.4201 9.14151C10.5566 9.19811 10.6806 9.28104 10.7851 9.38556C10.8895 9.49009 10.9724 9.61416 11.0289 9.7507C11.0854 9.88724 11.1144 10.0336 11.1144 10.1813C11.1143 10.3291 11.0851 10.4754 11.0285 10.6119C10.972 10.7484 10.889 10.8724 10.7845 10.9769L7.603 14.1584C7.49852 14.263 7.37444 14.346 7.23787 14.4026C7.1013 14.4592 6.9549 14.4883 6.80706 14.4883C6.65922 14.4883 6.51283 14.4592 6.37625 14.4026C6.23968 14.346 6.11561 14.263 6.01112 14.1584L4.42037 12.5687C4.21545 12.3566 4.10205 12.0724 4.10462 11.7774C4.10718 11.4825 4.2255 11.2003 4.43408 10.9917C4.64266 10.7831 4.92483 10.6648 5.2198 10.6622C5.51477 10.6597 5.79895 10.7731 6.01112 10.978L6.8065 11.7734Z" fill="white"/>
</svg>
