<svg width="19" height="18" viewBox="0 0 19 18" fill="none" xmlns="http://www.w3.org/2000/svg">
<path d="M4.65029 1.65069C4.76069 1.53221 4.82079 1.3755 4.81794 1.21358C4.81508 1.05167 4.74949 0.897179 4.63498 0.782668C4.52046 0.668157 4.36598 0.602564 4.20406 0.599707C4.04214 0.59685 3.88544 0.656953 3.76696 0.767353L2.12529 2.40902L1.73362 2.01735C1.61514 1.90695 1.45844 1.84685 1.29652 1.84971C1.1346 1.85256 0.980117 1.91816 0.865606 2.03267C0.751095 2.14718 0.685502 2.30167 0.682645 2.46358C0.679788 2.6255 0.739891 2.78221 0.850291 2.90069L1.68362 3.73402C1.80081 3.85106 1.95967 3.9168 2.12529 3.9168C2.29092 3.9168 2.44977 3.85106 2.56696 3.73402L4.65029 1.65069ZM8.16696 13.084C8.16696 13.3696 8.18862 13.6493 8.23196 13.9232H7.12529C6.96694 13.9231 6.81451 13.863 6.6988 13.7549C6.58309 13.6468 6.51273 13.4988 6.50194 13.3408C6.49114 13.1828 6.54072 13.0266 6.64065 12.9038C6.74058 12.7809 6.88342 12.7006 7.04029 12.679L7.12529 12.6732H8.18196C8.17213 12.8099 8.16713 12.9469 8.16696 13.084ZM13.5836 7.66735C14.6059 7.66568 15.6077 7.9547 16.472 8.50069H16.7086L16.7936 8.49485C16.9505 8.47327 17.0933 8.39294 17.1933 8.2701C17.2932 8.14726 17.3428 7.99107 17.332 7.83309C17.3212 7.6751 17.2508 7.5271 17.1351 7.419C17.0194 7.31089 16.867 7.25073 16.7086 7.25069H7.12529L7.04029 7.25652C6.88342 7.2781 6.74058 7.35843 6.64065 7.48127C6.54072 7.60411 6.49114 7.7603 6.50194 7.91829C6.51273 8.07627 6.58309 8.22427 6.6988 8.33238C6.81451 8.44048 6.96694 8.50064 7.12529 8.50069H10.6953C11.5596 7.9547 12.5613 7.66568 13.5836 7.66735ZM16.7086 1.83402H7.12529L7.04029 1.83985C6.88342 1.86144 6.74058 1.94176 6.64065 2.0646C6.54072 2.18744 6.49114 2.34363 6.50194 2.50162C6.51273 2.6596 6.58309 2.8076 6.6988 2.91571C6.81451 3.02382 6.96694 3.08397 7.12529 3.08402H16.7086L16.7936 3.07819C16.9505 3.0566 17.0933 2.97627 17.1933 2.85344C17.2932 2.7306 17.3428 2.5744 17.332 2.41642C17.3212 2.25843 17.2508 2.11044 17.1351 2.00233C17.0194 1.89422 16.867 1.83407 16.7086 1.83402ZM4.65029 12.484C4.7117 12.4268 4.76095 12.3578 4.79511 12.2811C4.82927 12.2045 4.84764 12.1217 4.84912 12.0378C4.8506 11.9539 4.83516 11.8705 4.80373 11.7927C4.77229 11.7149 4.7255 11.6442 4.66616 11.5848C4.60681 11.5255 4.53611 11.4787 4.45829 11.4473C4.38047 11.4158 4.29711 11.4004 4.21319 11.4019C4.12927 11.4033 4.04651 11.4217 3.96984 11.4559C3.89318 11.49 3.82418 11.5393 3.76696 11.6007L2.12529 13.2424L1.73362 12.8507C1.61514 12.7403 1.45844 12.6802 1.29652 12.683C1.1346 12.6859 0.980117 12.7515 0.865606 12.866C0.751095 12.9805 0.685502 13.135 0.682645 13.2969C0.679788 13.4588 0.739891 13.6155 0.850291 13.734L1.68362 14.5674C1.80081 14.6844 1.95967 14.7501 2.12529 14.7501C2.29092 14.7501 2.44977 14.6844 2.56696 14.5674L4.65029 12.484ZM4.65029 6.18402C4.76733 6.30121 4.83307 6.46006 4.83307 6.62569C4.83307 6.79131 4.76733 6.95016 4.65029 7.06735L2.56696 9.15069C2.44977 9.26773 2.29092 9.33347 2.12529 9.33347C1.95967 9.33347 1.80081 9.26773 1.68362 9.15069L0.850291 8.31735C0.788885 8.26013 0.739633 8.19113 0.705473 8.11447C0.671313 8.0378 0.652945 7.95504 0.651464 7.87112C0.649984 7.7872 0.665421 7.70384 0.696855 7.62602C0.728289 7.5482 0.775076 7.4775 0.834425 7.41815C0.893774 7.35881 0.964469 7.31202 1.04229 7.28058C1.12012 7.24915 1.20347 7.23371 1.28739 7.23519C1.37131 7.23667 1.45407 7.25504 1.53074 7.2892C1.60741 7.32336 1.67641 7.37261 1.73362 7.43402L2.12529 7.82569L3.76696 6.18402C3.88415 6.06698 4.043 6.00124 4.20862 6.00124C4.37425 6.00124 4.5331 6.06698 4.65029 6.18402ZM18.167 13.084C18.167 11.8684 17.6841 10.7027 16.8245 9.84311C15.965 8.98357 14.7992 8.50069 13.5836 8.50069C12.368 8.50069 11.2023 8.98357 10.3427 9.84311C9.48318 10.7027 9.00029 11.8684 9.00029 13.084C9.00029 14.2996 9.48318 15.4654 10.3427 16.3249C11.2023 17.1845 12.368 17.6674 13.5836 17.6674C14.7992 17.6674 15.965 17.1845 16.8245 16.3249C17.6841 15.4654 18.167 14.2996 18.167 13.084ZM14.0003 13.5007L14.0011 15.5865C14.0011 15.697 13.9572 15.803 13.8791 15.8811C13.8009 15.9593 13.695 16.0032 13.5845 16.0032C13.4739 16.0032 13.368 15.9593 13.2898 15.8811C13.2117 15.803 13.1678 15.697 13.1678 15.5865V13.5007H11.0803C10.9698 13.5007 10.8638 13.4568 10.7857 13.3786C10.7075 13.3005 10.6636 13.1945 10.6636 13.084C10.6636 12.9735 10.7075 12.8675 10.7857 12.7894C10.8638 12.7113 10.9698 12.6674 11.0803 12.6674H13.167V10.584C13.167 10.4735 13.2109 10.3675 13.289 10.2894C13.3671 10.2113 13.4731 10.1674 13.5836 10.1674C13.6941 10.1674 13.8001 10.2113 13.8783 10.2894C13.9564 10.3675 14.0003 10.4735 14.0003 10.584V12.6674H16.0811C16.1916 12.6674 16.2976 12.7113 16.3758 12.7894C16.4539 12.8675 16.4978 12.9735 16.4978 13.084C16.4978 13.1945 16.4539 13.3005 16.3758 13.3786C16.2976 13.4568 16.1916 13.5007 16.0811 13.5007H14.0003Z" fill="white"/>
</svg>
