<svg width="16" height="16" viewBox="0 0 16 16" fill="none" xmlns="http://www.w3.org/2000/svg">
<path d="M8 0.125C6.44248 0.125 4.91992 0.586861 3.62489 1.45218C2.32985 2.31749 1.32049 3.5474 0.724452 4.98637C0.128412 6.42534 -0.0275391 8.00874 0.276319 9.53634C0.580178 11.0639 1.3302 12.4671 2.43154 13.5685C3.53288 14.6698 4.93607 15.4198 6.46367 15.7237C7.99127 16.0275 9.57467 15.8716 11.0136 15.2756C12.4526 14.6795 13.6825 13.6702 14.5478 12.3751C15.4131 11.0801 15.875 9.55753 15.875 8C15.875 5.91142 15.0453 3.90838 13.5685 2.43153C12.0916 0.954685 10.0886 0.125 8 0.125ZM6.875 11.1444L4.0625 8.33187L4.95688 7.4375L6.875 9.35563L11.0431 5.1875L11.9409 6.07963L6.875 11.1444Z" fill="#34449C"/>
</svg>
