<svg width="35" height="34" viewBox="0 0 35 34" fill="none" xmlns="http://www.w3.org/2000/svg">
<rect x="0.654114" width="33.8365" height="33.8365" rx="16.9182" fill="#1DA1F2"/>
<g clip-path="url(#clip0_309_1358)">
<path d="M23.8845 13.1968C23.8956 13.3591 23.8956 13.5214 23.8956 13.6837C23.8956 18.6342 20.2673 24.3384 13.6356 24.3384C11.5926 24.3384 9.69465 23.7239 8.09814 22.6573C8.38843 22.692 8.66751 22.7036 8.96896 22.7036C10.6547 22.7036 12.2066 22.1124 13.4458 21.1037C11.8605 21.0689 10.532 19.9907 10.0742 18.5067C10.2975 18.5415 10.5208 18.5647 10.7553 18.5647C11.079 18.5647 11.4028 18.5183 11.7042 18.4372C10.0519 18.0893 8.81263 16.5822 8.81263 14.7619V14.7156C9.29268 14.9938 9.85094 15.1677 10.4426 15.1909C9.47131 14.5185 8.83497 13.3707 8.83497 12.0722C8.83497 11.3766 9.01356 10.7389 9.32618 10.1824C11.1013 12.4548 13.7696 13.9388 16.7616 14.1011C16.7058 13.8228 16.6723 13.533 16.6723 13.2432C16.6723 11.1795 18.28 9.49841 20.2784 9.49841C21.3166 9.49841 22.2544 9.95057 22.9131 10.681C23.7281 10.5187 24.5096 10.2056 25.2018 9.77666C24.9338 10.6462 24.3645 11.3766 23.6165 11.8403C24.3422 11.7592 25.0455 11.5505 25.693 11.2607C25.2019 12.0026 24.5878 12.6634 23.8845 13.1968Z" fill="white"/>
</g>
<defs>
<clipPath id="clip0_309_1358">
<rect width="17.595" height="18.2717" fill="white" transform="translate(8.09814 7.78247)"/>
</clipPath>
</defs>
</svg>
