<svg width="33" height="29" viewBox="0 0 33 29" fill="none" xmlns="http://www.w3.org/2000/svg">
<path d="M10.7363 28.2794C22.7549 28.2794 29.3304 17.6972 29.3304 8.52317C29.3304 8.22567 29.3242 7.92157 29.3117 7.62408C30.5909 6.64121 31.6948 5.42379 32.5715 4.02903C31.3802 4.59218 30.1154 4.95997 28.8202 5.11984C30.1839 4.25131 31.205 2.88689 31.6942 1.27952C30.4113 2.08735 29.0082 2.65721 27.5453 2.96466C26.5596 1.85183 25.2563 1.115 23.8369 0.8681C22.4175 0.621198 20.9612 0.877972 19.6929 1.59872C18.4247 2.31947 17.4152 3.46405 16.8206 4.8555C16.226 6.24696 16.0794 7.80778 16.4034 9.29665C13.8056 9.15815 11.2643 8.44115 8.94409 7.19214C6.62389 5.94313 4.57663 4.19 2.93502 2.04639C2.10067 3.57482 1.84536 5.38344 2.22097 7.10469C2.59659 8.82594 3.57494 10.3306 4.9572 11.313C3.91949 11.278 2.9045 10.9811 1.99611 10.447V10.5329C1.99518 12.1369 2.51707 13.6917 3.47306 14.933C4.42906 16.1744 5.76016 17.0257 7.24009 17.3422C6.27881 17.6217 5.2699 17.6624 4.29144 17.4612C4.70905 18.8406 5.52156 20.0471 6.61559 20.9123C7.70961 21.7774 9.03056 22.2581 10.3941 22.2872C8.07923 24.2192 5.21972 25.2671 2.2761 25.2622C1.75408 25.2613 1.23256 25.2273 0.714355 25.1604C3.70475 27.1988 7.18339 28.2814 10.7363 28.2794Z" fill="#F28520"/>
</svg>
