<svg width="17" height="12" viewBox="0 0 17 12" fill="none" xmlns="http://www.w3.org/2000/svg">
<path d="M1 7.87499C1 8.3182 1.0873 8.75707 1.25691 9.16655C1.42652 9.57602 1.67512 9.94808 1.98851 10.2615C2.62145 10.8944 3.47989 11.25 4.375 11.25H13.375C14.0395 11.2512 14.6797 11.0003 15.1665 10.5481C15.6533 10.0958 15.9504 9.47572 15.998 8.81295C16.0456 8.15019 15.84 7.49404 15.4228 6.97686C15.0056 6.45968 14.4078 6.11997 13.75 6.02624C13.7573 4.75031 13.2997 3.51539 12.4628 2.55231C11.6258 1.58923 10.4667 0.963923 9.20224 0.793273C7.93776 0.622623 6.6544 0.918313 5.59208 1.62507C4.52975 2.33182 3.76117 3.40127 3.43 4.63349C2.72871 4.83803 2.11272 5.26459 1.67455 5.84909C1.23638 6.43359 0.999676 7.14448 1 7.87499Z" stroke="#F28520" stroke-width="1.5" stroke-linejoin="round"/>
<path d="M10 5.25L8.5 3.75M8.5 3.75L7 5.25M8.5 3.75V8.25" stroke="#F28520" stroke-width="1.5" stroke-linecap="round" stroke-linejoin="round"/>
</svg>
