<svg width="18" height="13" viewBox="0 0 18 13" fill="none" xmlns="http://www.w3.org/2000/svg">
<path d="M12.3337 11.0677V12.7344H0.666992V11.0677C0.666992 11.0677 0.666992 7.73441 6.50033 7.73441C12.3337 7.73441 12.3337 11.0677 12.3337 11.0677ZM9.41699 3.15107C9.41699 2.57421 9.24593 2.0103 8.92545 1.53066C8.60496 1.05102 8.14944 0.677179 7.61649 0.456424C7.08353 0.235668 6.49709 0.177909 5.93131 0.290449C5.36553 0.402989 4.84583 0.680775 4.43793 1.08868C4.03003 1.49658 3.75224 2.01628 3.6397 2.58206C3.52716 3.14784 3.58492 3.73428 3.80568 4.26723C4.02643 4.80018 4.40027 5.2557 4.87991 5.57619C5.35956 5.89668 5.92346 6.06774 6.50033 6.06774C7.27387 6.06774 8.01574 5.76045 8.56272 5.21347C9.1097 4.66649 9.41699 3.92462 9.41699 3.15107ZM12.2837 7.73441C12.7959 8.13086 13.2151 8.63477 13.5117 9.21066C13.8083 9.78656 13.9751 10.4205 14.0003 11.0677V12.7344H17.3337V11.0677C17.3337 11.0677 17.3337 8.04274 12.2837 7.73441ZM11.5003 0.234406C10.9268 0.231738 10.366 0.403182 9.89199 0.726072C10.3982 1.43335 10.6704 2.28131 10.6704 3.15107C10.6704 4.02083 10.3982 4.86879 9.89199 5.57607C10.366 5.89896 10.9268 6.07041 11.5003 6.06774C12.2739 6.06774 13.0157 5.76045 13.5627 5.21347C14.1097 4.66649 14.417 3.92462 14.417 3.15107C14.417 2.37752 14.1097 1.63566 13.5627 1.08868C13.0157 0.541697 12.2739 0.234406 11.5003 0.234406Z" fill="white"/>
</svg>
