<svg width="18" height="13" viewBox="0 0 18 13" fill="none" xmlns="http://www.w3.org/2000/svg">
<path d="M12.3337 11.0658V12.7325H0.666992V11.0658C0.666992 11.0658 0.666992 7.73245 6.50033 7.73245C12.3337 7.73245 12.3337 11.0658 12.3337 11.0658ZM9.41699 3.14912C9.41699 2.57226 9.24593 2.00835 8.92545 1.52871C8.60496 1.04906 8.14944 0.675226 7.61649 0.454471C7.08353 0.233715 6.49709 0.175955 5.93131 0.288496C5.36553 0.401036 4.84583 0.678821 4.43793 1.08672C4.03003 1.49463 3.75224 2.01433 3.6397 2.58011C3.52716 3.14588 3.58492 3.73233 3.80568 4.26528C4.02643 4.79823 4.40027 5.25375 4.87991 5.57424C5.35956 5.89473 5.92346 6.06579 6.50033 6.06579C7.27387 6.06579 8.01574 5.75849 8.56272 5.21151C9.1097 4.66453 9.41699 3.92267 9.41699 3.14912ZM12.2837 7.73245C12.7959 8.12891 13.2151 8.63281 13.5117 9.20871C13.8083 9.7846 13.9751 10.4185 14.0003 11.0658V12.7325H17.3337V11.0658C17.3337 11.0658 17.3337 8.04079 12.2837 7.73245ZM11.5003 0.232453C10.9268 0.229785 10.366 0.401228 9.89199 0.724119C10.3982 1.4314 10.6704 2.27936 10.6704 3.14912C10.6704 4.01888 10.3982 4.86684 9.89199 5.57412C10.366 5.89701 10.9268 6.06845 11.5003 6.06579C12.2739 6.06579 13.0157 5.75849 13.5627 5.21151C14.1097 4.66453 14.417 3.92267 14.417 3.14912C14.417 2.37557 14.1097 1.63371 13.5627 1.08672C13.0157 0.539744 12.2739 0.232453 11.5003 0.232453Z" fill="#C9CED4" fill-opacity="0.6"/>
</svg>
